<svg xmlns="http://www.w3.org/2000/svg" xmlns:xlink="http://www.w3.org/1999/xlink" viewBox="0 0 380 220.6">
    <defs>
        <style>.cls-1{fill:url(#radial-gradient);}.cls-2{fill:url(#radial-gradient-2);}.cls-3{fill:url(#radial-gradient-11);}</style>
        <radialGradient id="radial-gradient" cx="193.12" cy="148.89" r="125.01" gradientUnits="userSpaceOnUse">
            <stop offset="0" stop-color="#34c2da"/>
            <stop offset="0.25" stop-color="#2cb7d6"/>
            <stop offset="0.68" stop-color="#169bcd"/>
            <stop offset="1" stop-color="#0381c4"/>
        </radialGradient>
        <radialGradient id="radial-gradient-2" cx="193.12" cy="148.89" r="125.01" gradientUnits="userSpaceOnUse">
            <stop offset="0" stop-color="#34c2da"/>
            <stop offset="1" stop-color="#0381c4"/>
        </radialGradient>
        <radialGradient id="radial-gradient-11" cx="192.42" cy="183.2" r="78.47" gradientUnits="userSpaceOnUse">
            <stop offset="0" stop-color="#ffd67d"/>
            <stop offset="0.38" stop-color="#ec7b64"/>
            <stop offset="1" stop-color="#f756a4"/>
        </radialGradient>
    </defs>
    <g id="Layer_2" data-name="Layer 2">
        <g id="Layer_1-2" data-name="Layer 1">
            <path class="cls-1" d="M127.57,188.8,0,220.6l113.24-47A48,48,0,0,0,127.57,188.8Z"/>
            <path class="cls-2" d="M380,220.6,252.43,188.8a48,48,0,0,0,14.33-15.19Z"/>
            <path class="cls-2" d="M122.48,152.11a47.73,47.73,0,0,0-10,12.56l-1.14,2.06L61.27,187.09Z"/>
            <path class="cls-2" d="M318.73,187.09l-50.07-20.36-1.14-2.06a47.73,47.73,0,0,0-10-12.56Z"/>
            <path class="cls-2" d="M131,129a48,48,0,0,0,.94,10.49L67,176.45Z"/>
            <path class="cls-2" d="M190,85.15l33.1,24.57a47.89,47.89,0,0,0-9.44,2A48.07,48.07,0,0,0,193.8,91L190,88.84,186.2,91a48.07,48.07,0,0,0-19.86,20.81,47.89,47.89,0,0,0-9.44-2Z"/>
            <path class="cls-2" d="M313,176.45l-64.88-37a47.36,47.36,0,0,0,.94-10.49Z"/>
            <path class="cls-2" d="M247.87,119.33h0c-.2-.89-.43-1.78-.68-2.66L246,112.49l-4.17-1.2a48,48,0,0,0-7.28-1.5L190,78l-44.53,31.82a48,48,0,0,0-7.28,1.5l-4.17,1.2-1.2,4.17c-.25.88-.49,1.76-.68,2.66L71,163.05,190,56.77,309.05,163.05Z"/>
            <polygon class="cls-2" points="305.1 148.85 190 49.59 74.9 148.85 190 28.38 305.1 148.85"/>
            <polygon class="cls-2" points="303.53 134.66 190 21.21 76.47 134.66 190 0 303.53 134.66"/>
            <path class="cls-3" d="M262.69,167.73a42.82,42.82,0,0,0-23.06-19.54,42.88,42.88,0,0,0,2.25-29.61l-.36-1.24-1.24-.36a42.88,42.88,0,0,0-29.61,2.25,42.82,42.82,0,0,0-19.54-23.06L190,95.54l-1.13.63a42.82,42.82,0,0,0-19.54,23.06A42.88,42.88,0,0,0,139.72,117l-1.24.36-.36,1.24a42.88,42.88,0,0,0,2.25,29.61,42.82,42.82,0,0,0-23.06,19.54l-.63,1.13.63,1.13A42.5,42.5,0,0,0,190,172.85,42.5,42.5,0,0,0,262.69,170l.63-1.13Zm-25-46.59a38.1,38.1,0,0,1-3.45,27.3v0a38.21,38.21,0,0,1-2.67,4.2c-.09.12-.17.24-.26.35a.39.39,0,0,1-.08.1q-.78,1-1.62,2l-.49.54c-.44.49-.89,1-1.36,1.44s-1,1-1.5,1.42l-.2.18c-.49.43-1,.85-1.5,1.25l-.27.22c-.51.39-1,.78-1.55,1.14l-.25.18c-.55.37-1.1.74-1.67,1.08a.41.41,0,0,1-.11.07c-.56.34-1.14.67-1.73,1l-.14.08c-.58.31-1.17.6-1.76.88l-.27.12c-.58.27-1.17.52-1.77.76l-.28.11c-.61.24-1.22.46-1.84.66l-.19.06c-.64.21-1.29.41-1.94.58h0c-.65.17-1.3.32-2,.46l-.25.06c-.63.12-1.26.23-1.9.33l-.32.05c-.63.09-1.27.16-1.9.22l-.29,0q-1,.09-2,.12h-.1c-.65,0-1.3,0-2,0h-.24c-.64,0-1.29-.06-1.93-.11l-.36,0c-.63-.06-1.26-.13-1.89-.22l-.14,0,.14-.1c.48-.36,1-.73,1.42-1.1l.29-.23c.5-.41,1-.82,1.47-1.25l.3-.27c.46-.42.92-.85,1.36-1.29l.09-.09c.46-.46.91-.93,1.35-1.42l.28-.31q.65-.72,1.26-1.47l.18-.23c.38-.46.74-.93,1.09-1.41l.2-.27c.38-.52.75-1.05,1.1-1.59l.23-.35c.36-.56.71-1.12,1-1.69a42.42,42.42,0,0,0,5.73-21.32c0-.74,0-1.46-.06-2.19,0-.14,0-.27,0-.4q-.06-1.05-.18-2.1c0-.13,0-.27-.05-.4-.08-.72-.18-1.44-.3-2.15v0c-.12-.71-.26-1.41-.42-2.11,0-.08,0-.16-.05-.24A38.18,38.18,0,0,1,237.72,121.14ZM190,100.92a37.82,37.82,0,0,1,13.31,51.43c-.41.7-.84,1.39-1.29,2.06-.15.23-.32.45-.48.67-.3.44-.61.88-.94,1.31-.19.25-.4.5-.61.75s-.6.76-.92,1.12-.47.5-.7.76-.63.68-1,1-.51.49-.77.74-.65.63-1,.93-.55.46-.83.69-.68.58-1,.85-.6.44-.89.66l-1.07.77c-.31.21-.64.41-1,.61l-.88.55-.88-.55c-.31-.2-.64-.4-1-.61l-1.07-.77c-.3-.22-.6-.43-.89-.66s-.69-.56-1-.85-.55-.45-.82-.69-.68-.63-1-.95-.51-.47-.75-.71-.66-.7-1-1-.46-.48-.68-.73-.64-.77-1-1.17c-.19-.23-.39-.46-.57-.7-.34-.45-.66-.91-1-1.37-.15-.2-.3-.4-.44-.61-.45-.67-.88-1.36-1.29-2.06a37.76,37.76,0,0,1-5.1-19c0-.44,0-.87,0-1.3s0-1,.08-1.43a37.17,37.17,0,0,1,1.3-7.49h0A38.09,38.09,0,0,1,190,100.92Zm-47.72,20.22A38.18,38.18,0,0,1,168,123.77c0,.08,0,.16-.05.24-.16.7-.3,1.4-.42,2.11v0c-.12.71-.22,1.43-.3,2.15,0,.13,0,.27-.05.4q-.12,1.05-.18,2.1c0,.13,0,.26,0,.4,0,.73-.06,1.45-.06,2.19a42.36,42.36,0,0,0,5.73,21.31c.33.58.68,1.14,1,1.7l.23.34c.35.54.72,1.08,1.1,1.6l.19.26c.36.48.72,1,1.1,1.42l.18.23q.61.75,1.26,1.47l.28.31c.44.49.89,1,1.35,1.42l.09.08c.44.45.9.88,1.36,1.3l.3.27c.48.43,1,.84,1.47,1.25l.29.23c.46.37.94.74,1.42,1.09l.14.11-.13,0c-.64.09-1.28.17-1.91.22l-.34,0c-.65,0-1.3.09-1.95.11h-.21c-.67,0-1.34,0-2,0h0c-.68,0-1.35-.06-2-.12l-.25,0c-.65-.06-1.29-.13-1.94-.22l-.29-.05c-.64-.09-1.28-.21-1.92-.34l-.22,0a39.62,39.62,0,0,1-4-1.07l-.15,0c-.63-.21-1.25-.44-1.87-.68l-.24-.1c-.61-.24-1.21-.49-1.8-.77l-.24-.11c-.61-.28-1.2-.58-1.79-.89l-.12-.06c-.59-.32-1.19-.66-1.77-1l-.08,0c-.57-.35-1.12-.72-1.68-1.1l-.23-.16c-.53-.37-1.05-.76-1.56-1.16l-.27-.21c-.51-.4-1-.82-1.5-1.25l-.2-.18c-.51-.46-1-.93-1.5-1.42-.32-.32-.64-.65-.95-1a38,38,0,0,1-5.53-7.66h0A38,38,0,0,1,142.28,121.14Zm12.24,66.13a37.86,37.86,0,0,1-32.46-18.41,38.08,38.08,0,0,1,20.52-16.48,1.37,1.37,0,0,1,.13.2c.39.63.79,1.25,1.21,1.86a1,1,0,0,0,.08.11c.43.63.89,1.24,1.35,1.84l.27.34c.46.58.93,1.15,1.42,1.7.09.11.19.21.28.31.51.57,1,1.14,1.59,1.68s1.11,1.08,1.68,1.6l.57.48c.4.35.8.68,1.2,1l.69.53c.38.3.77.59,1.16.87l.73.51c.4.27.8.54,1.21.79l.72.46q.67.41,1.35.78l.63.35c.65.35,1.31.69,2,1l0,0c.69.33,1.39.63,2.1.91.2.09.41.16.61.24l1.52.56.77.25c.46.15.93.3,1.4.43l.82.22c.47.13.94.25,1.42.35.27.06.53.13.8.18.51.11,1,.2,1.54.29l.7.12q1,.16,2.1.27l.15,0c.75.07,1.52.12,2.28.16h.64c.43,0,.85,0,1.28,0h.83c.71,0,1.43,0,2.14-.09l.29,0c.7-.06,1.41-.13,2.12-.22h.12A37.9,37.9,0,0,1,154.52,187.27Zm71,0a37.9,37.9,0,0,1-30-14.76h0c.73.1,1.47.17,2.2.22l.32,0c.71.05,1.41.08,2.12.09H201c.41,0,.81,0,1.21,0l.73,0c.75,0,1.5-.09,2.24-.16l.39,0q.93-.09,1.86-.24l.82-.14c.47-.08.93-.16,1.4-.26l.91-.2,1.3-.32.92-.25,1.28-.4.88-.28c.46-.16.91-.33,1.36-.51.26-.09.51-.18.76-.29.69-.28,1.37-.57,2-.88l.31-.16c.58-.27,1.15-.56,1.72-.87.24-.12.48-.26.71-.4l1.27-.73.77-.48,1.16-.77c.26-.17.51-.35.76-.53l1.14-.84.7-.55c.4-.32.8-.66,1.19-1l.58-.49q.85-.78,1.68-1.59c.55-.55,1.07-1.11,1.59-1.69.09-.1.19-.2.28-.31.49-.55,1-1.12,1.42-1.7l.27-.34c.46-.6.92-1.21,1.35-1.84a.61.61,0,0,0,.07-.1c.42-.62.83-1.24,1.22-1.88l.13-.19a38.08,38.08,0,0,1,20.52,16.48A37.86,37.86,0,0,1,225.48,187.27Z"/>
        </g>
    </g>
</svg>