<svg xmlns="http://www.w3.org/2000/svg" xmlns:xlink="http://www.w3.org/1999/xlink" viewBox="0 0 653.3 598">
    <defs>
        <style>.cls-1{fill:url(#radial-gradient);}.cls-2{fill:url(#radial-gradient-2);}.cls-3{fill:url(#radial-gradient-11);}</style>
        <radialGradient id="radial-gradient" cx="331.8" cy="245.83" r="206.41" gradientUnits="userSpaceOnUse">
            <stop offset="0" stop-color="#34c2da"/>
            <stop offset="0.25" stop-color="#2cb7d6"/>
            <stop offset="0.68" stop-color="#169bcd"/>
            <stop offset="1" stop-color="#0381c4"/>
        </radialGradient>
        <radialGradient id="radial-gradient-2" cx="331.8" cy="245.83" r="206.41" gradientUnits="userSpaceOnUse">
            <stop offset="0" stop-color="#34c2da"/>
            <stop offset="1" stop-color="#0381c4"/>
        </radialGradient>
        <radialGradient id="radial-gradient-11" cx="330.64" cy="302.48" r="129.56" gradientUnits="userSpaceOnUse">
            <stop offset="0" stop-color="#ffd67d"/>
            <stop offset="0.38" stop-color="#ec7b64"/>
            <stop offset="1" stop-color="#f756a4"/>
        </radialGradient>
    </defs>
    <g id="Layer_2" data-name="Layer 2">
        <g id="Layer_1-2" data-name="Layer 1">
            <path class="cls-1" d="M223.57,311.73,13,364.23l187-77.58A79.3,79.3,0,0,0,223.57,311.73Z"/>
            <path class="cls-2" d="M640.36,364.23l-210.63-52.5a79.3,79.3,0,0,0,23.65-25.08Z"/>
            <path class="cls-2" d="M215.18,251.15a78.92,78.92,0,0,0-16.52,20.73l-1.89,3.4L114.11,308.9Z"/>
            <path class="cls-2" d="M539.19,308.9l-82.66-33.62-1.88-3.4a79.33,79.33,0,0,0-16.52-20.73Z"/>
            <path class="cls-2" d="M229.16,213a79.42,79.42,0,0,0,1.55,17.32l-107.12,61Z"/>
            <path class="cls-2" d="M326.65,140.58l54.66,40.58a79.72,79.72,0,0,0-15.59,3.37,79.36,79.36,0,0,0-32.79-34.37l-6.28-3.47-6.27,3.47a79.36,79.36,0,0,0-32.79,34.37,79.66,79.66,0,0,0-15.6-3.37Z"/>
            <path class="cls-2" d="M529.71,291.33l-107.11-61A79.36,79.36,0,0,0,424.15,213Z"/>
            <path class="cls-2" d="M422.2,197v0c-.33-1.47-.71-2.94-1.12-4.4l-2-6.88-6.88-2a78.09,78.09,0,0,0-12-2.48l-73.52-52.53-73.52,52.53a78,78,0,0,0-12,2.48l-6.89,2-2,6.88c-.41,1.46-.81,2.92-1.12,4.4l-101,72.19L326.65,93.72,523.21,269.2Z"/>
            <polygon class="cls-2" points="516.7 245.77 326.65 81.88 136.61 245.77 326.65 46.86 516.7 245.77"/>
            <polygon class="cls-2" points="514.09 222.34 326.65 35.02 139.21 222.34 326.65 0 514.09 222.34"/>
            <path class="cls-3" d="M446.67,276.93a70.69,70.69,0,0,0-38.08-32.25,70.83,70.83,0,0,0,3.73-48.9l-.6-2.05-2.05-.59a70.72,70.72,0,0,0-48.9,3.73,70.63,70.63,0,0,0-32.25-38.09l-1.87-1-1.87,1a70.72,70.72,0,0,0-32.25,38.09,70.72,70.72,0,0,0-48.9-3.73l-2,.59-.59,2.05a70.72,70.72,0,0,0,3.73,48.9,70.68,70.68,0,0,0-38.09,32.25l-1,1.87,1,1.87a70.18,70.18,0,0,0,120,4.73,70.18,70.18,0,0,0,120-4.73l1-1.87ZM405.44,200a62.9,62.9,0,0,1-5.69,45.08l0,0a64.09,64.09,0,0,1-4.41,6.94c-.15.19-.28.39-.43.58l-.13.17c-.85,1.13-1.74,2.24-2.67,3.31l-.81.89c-.73.81-1.48,1.61-2.25,2.38s-1.64,1.58-2.48,2.34l-.33.3c-.81.72-1.64,1.4-2.48,2.07l-.44.35c-.84.66-1.69,1.29-2.56,1.9l-.42.28c-.9.63-1.82,1.23-2.75,1.8l-.17.1c-.94.57-1.89,1.12-2.86,1.64l-.23.13c-1,.51-1.93,1-2.92,1.45L371,272c-1,.44-1.94.86-2.92,1.25l-.47.18c-1,.39-2,.76-3,1.1l-.32.1c-1.06.34-2.12.66-3.2.95H361c-1.07.29-2.14.54-3.23.77l-.42.09c-1,.21-2.08.39-3.13.55l-.53.08c-1,.15-2.09.27-3.14.37l-.48,0c-1.09.1-2.18.16-3.28.2h-.15c-1.08,0-2.15,0-3.23,0H343c-1.06,0-2.12-.1-3.18-.18l-.59-.05q-1.56-.15-3.12-.36l-.24,0,.23-.17c.8-.59,1.58-1.19,2.35-1.81l.48-.38c.82-.67,1.63-1.36,2.42-2.06l.49-.45c.77-.7,1.52-1.41,2.26-2.14l.14-.14c.76-.76,1.5-1.54,2.23-2.34l.47-.52c.71-.79,1.4-1.6,2.08-2.42l.3-.38q.92-1.15,1.8-2.34l.33-.44c.62-.86,1.22-1.74,1.81-2.63.13-.19.25-.38.37-.57.59-.92,1.17-1.85,1.72-2.8a69.91,69.91,0,0,0,9.47-35.2c0-1.21,0-2.41-.1-3.61,0-.22,0-.45,0-.67-.07-1.15-.16-2.3-.29-3.45,0-.23-.05-.45-.08-.67-.14-1.19-.3-2.37-.5-3.55v-.05c-.2-1.16-.44-2.32-.7-3.47,0-.14-.05-.27-.08-.4A63,63,0,0,1,405.44,200Zm-78.79-33.38A62.31,62.31,0,0,1,357,220.23a62.21,62.21,0,0,1-8.42,31.31c-.67,1.16-1.38,2.3-2.12,3.41-.25.38-.53.73-.79,1.1-.51.73-1,1.46-1.55,2.16-.32.42-.67.82-1,1.24-.5.62-1,1.25-1.53,1.85-.37.43-.77.83-1.15,1.25s-1,1.13-1.58,1.68-.84.81-1.27,1.21-1.07,1-1.63,1.53-.92.77-1.38,1.16-1.12.95-1.7,1.4-1,.72-1.48,1.08-1.16.86-1.76,1.27-1.05.67-1.57,1-1,.61-1.45.9c-.49-.29-1-.6-1.45-.9s-1.05-.66-1.56-1-1.19-.84-1.77-1.27-1-.71-1.47-1.08-1.15-.94-1.72-1.41-.92-.75-1.36-1.14-1.11-1-1.66-1.56-.84-.78-1.25-1.19c-.55-.56-1.08-1.15-1.62-1.73-.36-.4-.75-.78-1.11-1.19-.54-.63-1.06-1.29-1.59-1.94-.31-.39-.64-.76-.94-1.16-.57-.73-1.09-1.5-1.62-2.25-.24-.34-.49-.67-.72-1-.75-1.11-1.46-2.25-2.13-3.41a62.21,62.21,0,0,1-8.42-31.31c0-.72,0-1.43,0-2.14s.07-1.57.12-2.36a63,63,0,0,1,2.14-12.36h0A62.9,62.9,0,0,1,326.65,166.63ZM247.86,200a63,63,0,0,1,42.47,4.35c0,.13-.05.27-.08.4-.26,1.15-.5,2.31-.7,3.47v.05c-.2,1.18-.36,2.36-.51,3.55,0,.22,0,.45-.08.67-.12,1.15-.22,2.3-.29,3.45l0,.67c-.06,1.2-.1,2.4-.1,3.61A69.94,69.94,0,0,0,298,255.42c.55,1,1.13,1.88,1.72,2.8l.37.58c.59.89,1.19,1.77,1.82,2.63l.32.44c.59.79,1.19,1.57,1.81,2.34.1.12.19.25.3.37.67.83,1.36,1.64,2.08,2.43l.46.52c.73.8,1.47,1.58,2.24,2.34l.13.14c.74.73,1.5,1.44,2.26,2.14l.5.45c.79.7,1.59,1.39,2.41,2.06l.48.38c.77.61,1.56,1.22,2.36,1.8l.23.18-.23,0c-1.05.15-2.1.27-3.15.37l-.56.05c-1.07.08-2.14.15-3.21.18H310c-1.11,0-2.21,0-3.32,0h-.08c-1.12,0-2.22-.1-3.33-.2l-.42,0c-1.07-.1-2.13-.22-3.19-.38l-.48-.07c-1.06-.16-2.12-.34-3.18-.56l-.36-.07a64.92,64.92,0,0,1-6.57-1.76l-.24-.08q-1.56-.51-3.09-1.11l-.41-.16c-1-.4-2-.82-3-1.27l-.39-.19c-1-.46-2-.95-3-1.47l-.18-.1c-1-.54-2-1.09-2.93-1.68l-.13-.08c-.94-.57-1.86-1.18-2.78-1.81l-.38-.27c-.88-.61-1.74-1.25-2.58-1.91l-.44-.34c-.84-.67-1.67-1.36-2.48-2.07l-.32-.3c-.85-.76-1.68-1.53-2.49-2.34-.53-.53-1-1.07-1.56-1.61a62.66,62.66,0,0,1-9.14-12.66h0A62.91,62.91,0,0,1,247.86,200Zm20.22,109.18a62.48,62.48,0,0,1-53.6-30.39,62.89,62.89,0,0,1,33.88-27.21c.07.11.15.21.22.33.64,1,1.3,2.07,2,3.08l.12.18c.72,1,1.47,2,2.23,3l.45.57c.76,1,1.54,1.89,2.34,2.81l.46.5c.85,1,1.72,1.88,2.62,2.78s1.84,1.78,2.79,2.63c.31.28.63.54.94.81.65.56,1.31,1.12,2,1.66.37.3.75.59,1.13.88.64.49,1.27,1,1.92,1.43l1.21.84c.65.45,1.32.89,2,1.31.4.25.79.51,1.19.75.74.45,1.48.87,2.23,1.29.35.19.69.4,1,.58,1.08.58,2.16,1.13,3.26,1.65l.08,0c1.14.53,2.3,1,3.46,1.5l1,.39c.83.32,1.66.64,2.5.92l1.27.42c.78.25,1.55.49,2.33.71l1.35.37c.77.21,1.56.4,2.34.58l1.33.29c.84.18,1.69.33,2.54.48l1.15.2c1.15.17,2.31.32,3.47.44l.24,0c1.25.12,2.51.21,3.77.27l1.06,0c.7,0,1.4.05,2.1.05h1.38q1.77,0,3.54-.15l.47,0c1.16-.09,2.33-.21,3.5-.36l.2,0A62.53,62.53,0,0,1,268.08,309.19Zm117.14,0a62.51,62.51,0,0,1-49.48-24.37h0c1.22.16,2.43.27,3.65.37l.53,0c1.16.08,2.33.13,3.49.15h1.38c.67,0,1.33,0,2,0l1.21,0c1.24-.06,2.47-.14,3.7-.27l.64-.07c1-.11,2-.24,3.06-.4l1.36-.23c.77-.13,1.55-.27,2.32-.43l1.49-.34c.72-.16,1.44-.34,2.16-.52l1.51-.42c.71-.2,1.42-.42,2.12-.65.49-.16,1-.31,1.45-.48.76-.26,1.51-.54,2.25-.83l1.25-.47c1.14-.46,2.26-1,3.37-1.47l.51-.25c1-.46,1.9-.93,2.84-1.44.4-.21.79-.44,1.18-.66.7-.39,1.4-.79,2.09-1.21.43-.26.85-.53,1.27-.8q1-.61,1.92-1.26c.42-.29.84-.58,1.25-.88.64-.45,1.26-.92,1.88-1.39l1.16-.9c.67-.54,1.32-1.09,2-1.65.32-.27.64-.54.95-.82,1-.85,1.88-1.72,2.79-2.63s1.77-1.83,2.62-2.77l.46-.51c.81-.92,1.59-1.86,2.35-2.81l.44-.57c.77-1,1.52-2,2.24-3a1,1,0,0,1,.11-.17c.7-1,1.37-2,2-3.1l.21-.32a62.91,62.91,0,0,1,33.89,27.21A62.51,62.51,0,0,1,385.22,309.19Z"/>
            <path d="M88.71,499.37H19.58q.81,10.85,8,17.41a25.41,25.41,0,0,0,17.74,6.57q15.11,0,21.35-12.65H86.9A40.74,40.74,0,0,1,72,531.15q-10.76,8-26.68,8a46.18,46.18,0,0,1-23.24-5.83A41.41,41.41,0,0,1,6,516.86Q.2,506.27.2,492.31t5.67-24.55a39.85,39.85,0,0,1,15.92-16.34,47.43,47.43,0,0,1,23.57-5.75,46.06,46.06,0,0,1,22.82,5.59,39.42,39.42,0,0,1,15.6,15.68,47.26,47.26,0,0,1,5.59,23.24A58.15,58.15,0,0,1,88.71,499.37ZM69.83,484.26q-.17-10.33-7.39-16.58t-17.9-6.24A24,24,0,0,0,28,467.6q-6.9,6.15-8.21,16.66Z"/>
            <path d="M135.35,492.47l41.71,45.16H151.77l-33.5-38.91v38.91H99.55V416.12h18.72v70.61l32.84-39.58h25.95Z"/>
            <path d="M181.73,467.84a41.29,41.29,0,0,1,37-22.17,39.52,39.52,0,0,1,18.64,4.19,37.87,37.87,0,0,1,12.73,10.43V447.15H269v90.48H250.13V524.17a37.17,37.17,0,0,1-13,10.67,42,42,0,0,1-40.07-1.72,42.57,42.57,0,0,1-15.36-16.75A51.61,51.61,0,0,1,176.07,492,50.18,50.18,0,0,1,181.73,467.84Zm64.54,8.21a27.14,27.14,0,0,0-10.1-10.51,26.5,26.5,0,0,0-13.46-3.61,26.54,26.54,0,0,0-23.57,13.88A32.3,32.3,0,0,0,195.28,492a33.71,33.71,0,0,0,3.86,16.42,27.21,27.21,0,0,0,10.18,10.76,26.51,26.51,0,0,0,26.85.08,26.89,26.89,0,0,0,10.1-10.59,33.26,33.26,0,0,0,3.86-16.34A32.81,32.81,0,0,0,246.27,476.05Z"/>
            <path d="M299.15,535.25a33.57,33.57,0,0,1-13.39-10.51,26.2,26.2,0,0,1-5.25-14.86h19.37a13.2,13.2,0,0,0,5.51,9.61A20,20,0,0,0,318,523.35q7.88,0,12.23-3a9.17,9.17,0,0,0,4.35-7.8,8,8,0,0,0-4.84-7.55q-4.85-2.47-15.35-5.42a148.25,148.25,0,0,1-16.59-5.42,29.08,29.08,0,0,1-11.08-8.05Q282,480.66,282,471.78a22.23,22.23,0,0,1,4.27-13.21,28.37,28.37,0,0,1,12.23-9.45,45.68,45.68,0,0,1,18.31-3.45q15.43,0,24.88,7.8t10.1,21.27H333.06a13.34,13.34,0,0,0-4.93-9.69q-4.44-3.62-12-3.61-7.38,0-11.33,2.79a8.64,8.64,0,0,0-3.94,7.39,8,8,0,0,0,2.63,6.08,18.51,18.51,0,0,0,6.4,3.85c2.52.94,6.24,2.11,11.17,3.54a121.86,121.86,0,0,1,16.17,5.33,30,30,0,0,1,10.92,8q4.6,5.25,4.77,14a23.45,23.45,0,0,1-4.27,13.79,28.33,28.33,0,0,1-12.07,9.52,45,45,0,0,1-18.31,3.45A45.58,45.58,0,0,1,299.15,535.25Z"/>
            <path d="M430.19,450.11A31.52,31.52,0,0,1,443,463.24q4.68,8.72,4.68,21v53.37H429.12V487.06q0-12.15-6.08-18.64t-16.58-6.49q-10.51,0-16.67,6.49t-6.16,18.64v50.57H364.91V416.12h18.72v41.54a31.57,31.57,0,0,1,12.07-8.87,40.53,40.53,0,0,1,16-3.12A37.92,37.92,0,0,1,430.19,450.11Z"/>
            <path d="M462.7,467.84a41.29,41.29,0,0,1,37-22.17,39.52,39.52,0,0,1,18.64,4.19,37.87,37.87,0,0,1,12.73,10.43V447.15H550v90.48H531.1V524.17a37.11,37.11,0,0,1-13,10.67,42,42,0,0,1-40.07-1.72,42.55,42.55,0,0,1-15.35-16.75A51.49,51.49,0,0,1,457,492,50.07,50.07,0,0,1,462.7,467.84Zm64.54,8.21a27.21,27.21,0,0,0-10.1-10.51,26.51,26.51,0,0,0-13.47-3.61,26.54,26.54,0,0,0-23.56,13.88A32.2,32.2,0,0,0,476.25,492a33.6,33.6,0,0,0,3.86,16.42,27.14,27.14,0,0,0,10.18,10.76,26.11,26.11,0,0,0,13.38,3.69,26.41,26.41,0,0,0,13.47-3.61,27,27,0,0,0,10.1-10.59,33.26,33.26,0,0,0,3.86-16.34A32.81,32.81,0,0,0,527.24,476.05Z"/>
            <path d="M565.83,467.84a41.26,41.26,0,0,1,37-22.17,39.57,39.57,0,0,1,18.64,4.19,37.83,37.83,0,0,1,12.72,10.43V447.15h18.89v90.48H634.22V524.17a37.08,37.08,0,0,1-13,10.67,42,42,0,0,1-40.07-1.72,42.47,42.47,0,0,1-15.35-16.75A51.5,51.5,0,0,1,560.16,492,50.07,50.07,0,0,1,565.83,467.84Zm64.53,8.21a27.14,27.14,0,0,0-10.1-10.51,26.5,26.5,0,0,0-13.46-3.61,26.54,26.54,0,0,0-23.57,13.88A32.3,32.3,0,0,0,579.37,492a33.71,33.71,0,0,0,3.86,16.42,27.21,27.21,0,0,0,10.18,10.76,26.51,26.51,0,0,0,26.85.08,26.89,26.89,0,0,0,10.1-10.59,33.26,33.26,0,0,0,3.86-16.34A32.81,32.81,0,0,0,630.36,476.05Z"/>
            <path d="M13,597.73,6.8,587.51H1.54v10.22H0v-24H6.59q4,0,6,1.88a6.55,6.55,0,0,1,2,5A6.68,6.68,0,0,1,13,585.17a7,7,0,0,1-4.52,2.21l6.28,10.35ZM1.54,586.21H6.66a6.57,6.57,0,0,0,4.75-1.53A5.43,5.43,0,0,0,13,580.61q0-5.5-6.39-5.5h-5Z"/>
            <path d="M48,575v10H57.6v1.3H48v10.08H58.62v1.3H46.5v-24H58.62V575Z"/>
            <path d="M104.2,591.58H92.82l-2.29,6.15H88.86l8.81-23.44h1.71l8.78,23.44h-1.67Zm-.48-1.3-5.19-14-5.23,14Z"/>
            <path d="M140.89,596.43h8.92v1.3H139.35v-24h1.54Z"/>
            <path d="M193.88,573.74V575H187v22.69h-1.53V575h-6.84v-1.3Z"/>
            <path d="M239.66,573.74,232.1,588v9.7h-1.53V588L223,573.74h1.74l6.63,12.85,6.59-12.85Z"/>
            <path d="M321.24,591.58H309.86l-2.29,6.15H305.9l8.81-23.44h1.71l8.78,23.44h-1.67Zm-.48-1.3-5.19-14-5.23,14Z"/>
            <path d="M372.5,576.92q3.3,3.18,3.3,8.85t-3.3,8.81q-3.3,3.15-9.38,3.15h-6.73v-24h6.73Q369.21,573.74,372.5,576.92Zm-1.11,16.69q2.83-2.82,2.84-7.84t-2.84-7.89q-2.83-2.83-8.27-2.84h-5.19v21.39h5.19Q368.55,596.43,371.39,593.61Z"/>
            <path d="M425.88,573.74l-9.16,24H415l-9.12-24h1.68l8.3,22.18,8.37-22.18Z"/>
            <path d="M458.47,573.74v24h-1.54v-24Z"/>
            <path d="M494.31,597.15a6.77,6.77,0,0,1-2.72-2.22,6.22,6.22,0,0,1-1.11-3.11h1.61a5.82,5.82,0,0,0,1.76,3.35,6.23,6.23,0,0,0,4.52,1.46,7,7,0,0,0,3.1-.64,5,5,0,0,0,2-1.78,4.52,4.52,0,0,0,.72-2.49,4.22,4.22,0,0,0-.84-2.77,5.1,5.1,0,0,0-2.09-1.54,29.12,29.12,0,0,0-3.36-1.09,26.82,26.82,0,0,1-3.74-1.23,5.87,5.87,0,0,1-2.39-1.9,6.28,6.28,0,0,1-.07-6.63,6.15,6.15,0,0,1,2.58-2.23,8.6,8.6,0,0,1,3.86-.83,7.89,7.89,0,0,1,5.12,1.58,6.12,6.12,0,0,1,2.33,3.86H504a5.08,5.08,0,0,0-.91-1.88,5.32,5.32,0,0,0-2-1.59,6.85,6.85,0,0,0-3.06-.63,6.27,6.27,0,0,0-4,1.31,4.73,4.73,0,0,0-.79,6.29,5.39,5.39,0,0,0,2.11,1.57,25.87,25.87,0,0,0,3.36,1.08,30.65,30.65,0,0,1,3.74,1.24,5.93,5.93,0,0,1,2.36,1.88,5.61,5.61,0,0,1,1,3.47,5.85,5.85,0,0,1-.85,3,6.39,6.39,0,0,1-2.51,2.34,8.32,8.32,0,0,1-4,.91A9.52,9.52,0,0,1,494.31,597.15Z"/>
            <path d="M542.41,596.45a11,11,0,0,1-4.17-4.36,14.11,14.11,0,0,1,0-12.66,11,11,0,0,1,4.17-4.34,12.31,12.31,0,0,1,12,0,11,11,0,0,1,4.17,4.34,14.11,14.11,0,0,1,0,12.66,11,11,0,0,1-4.17,4.36,12.31,12.31,0,0,1-12,0Zm11.1-1.15a9.43,9.43,0,0,0,3.61-3.79,13.3,13.3,0,0,0,0-11.51,9.45,9.45,0,0,0-3.61-3.8,10.52,10.52,0,0,0-10.24,0,9.57,9.57,0,0,0-3.63,3.8,13.12,13.12,0,0,0,0,11.51,9.54,9.54,0,0,0,3.63,3.79,10.52,10.52,0,0,0,10.24,0Z"/>
            <path d="M605,597.73l-6.15-10.22h-5.26v10.22H592v-24h6.59q4,0,6,1.88a6.52,6.52,0,0,1,2,5,6.67,6.67,0,0,1-1.55,4.56,7,7,0,0,1-4.53,2.21l6.29,10.35Zm-11.41-11.52h5.13a6.57,6.57,0,0,0,4.75-1.53,5.47,5.47,0,0,0,1.57-4.07q0-5.5-6.39-5.5h-5.06Z"/>
            <path d="M653.3,573.74,645.75,588v9.7h-1.53V588l-7.62-14.29h1.74L645,586.59l6.59-12.85Z"/>
        </g>
    </g>
</svg>