<svg xmlns="http://www.w3.org/2000/svg" xmlns:xlink="http://www.w3.org/1999/xlink" width="58.272" height="33.829" viewBox="0 0 58.272 33.829">
  <defs>
    <radialGradient id="radial-gradient" cx="1.514" cy="-0.526" r="2.661" gradientTransform="translate(0.316) scale(0.368 1)" gradientUnits="objectBoundingBox">
      <stop offset="0" stop-color="#fff"/>
      <stop offset="0.247" stop-color="#fff"/>
      <stop offset="0.677" stop-color="#fff"/>
      <stop offset="1" stop-color="#fff"/>
    </radialGradient>
  </defs>
  <g id="Group_48" data-name="Group 48" transform="translate(0)">
    <path id="Path_4" data-name="Path 4" d="M405.57,337.857l-19.562,4.876,17.366-7.206A7.367,7.367,0,0,0,405.57,337.857Z" transform="translate(-386.008 -308.904)" fill="url(#radial-gradient)"/>
    <path id="Path_5" data-name="Path 5" d="M610.162,342.733,590.6,337.857a7.367,7.367,0,0,0,2.2-2.33Z" transform="translate(-551.89 -308.904)" fill="url(#radial-gradient)"/>
    <path id="Path_6" data-name="Path 6" d="M445.055,318.1a7.342,7.342,0,0,0-1.534,1.926l-.175.316-7.677,3.123Z" transform="translate(-426.273 -294.776)" fill="url(#radial-gradient)"/>
    <path id="Path_7" data-name="Path 7" d="M604.108,323.466l-7.677-3.123-.175-.316a7.343,7.343,0,0,0-1.534-1.926Z" transform="translate(-555.232 -294.776)" fill="url(#radial-gradient)"/>
    <path id="Path_8" data-name="Path 8" d="M450.125,299.355a7.42,7.42,0,0,0,.144,1.609l-9.949,5.67Z" transform="translate(-430.044 -279.576)" fill="url(#radial-gradient)"/>
    <path id="Path_9" data-name="Path 9" d="M518.246,263.828l5.076,3.768a7.361,7.361,0,0,0-1.448.313,7.365,7.365,0,0,0-3.046-3.192l-.583-.323-.583.323a7.365,7.365,0,0,0-3.046,3.192,7.361,7.361,0,0,0-1.448-.313Z" transform="translate(-489.11 -250.771)" fill="url(#radial-gradient)"/>
    <path id="Path_10" data-name="Path 10" d="M597.048,306.634l-9.949-5.67a7.343,7.343,0,0,0,.144-1.609Z" transform="translate(-549.052 -279.576)" fill="url(#radial-gradient)"/>
    <path id="Path_11" data-name="Path 11" d="M470.645,250.419h0c-.03-.137-.065-.273-.1-.409l-.185-.64-.64-.184a7.294,7.294,0,0,0-1.117-.23l-6.828-4.879-6.828,4.879a7.294,7.294,0,0,0-1.117.23l-.639.184-.184.64c-.039.135-.075.271-.1.409l-9.383,6.7,18.256-16.3,18.256,16.3Z" transform="translate(-432.634 -232.12)" fill="url(#radial-gradient)"/>
    <path id="Path_12" data-name="Path 12" d="M482.012,236.3l-17.651-15.222L446.71,236.3l17.651-18.474Z" transform="translate(-435.225 -213.468)" fill="url(#radial-gradient)"/>
    <path id="Path_13" data-name="Path 13" d="M482.806,215.468,465.4,198.07l-17.409,17.4,17.409-20.65Z" transform="translate(-436.261 -194.818)" fill="url(#radial-gradient)"/>
    <path id="Path_14" data-name="Path 14" d="M502.967,283.323a6.565,6.565,0,0,0-3.537-3,6.572,6.572,0,0,0,.346-4.541l-.055-.191-.191-.055a6.572,6.572,0,0,0-4.541.346,6.565,6.565,0,0,0-3-3.537l-.174-.1-.174.1a6.566,6.566,0,0,0-3,3.537,6.572,6.572,0,0,0-4.541-.346l-.191.055-.055.191a6.572,6.572,0,0,0,.346,4.541,6.566,6.566,0,0,0-3.537,3l-.1.174.1.174a6.519,6.519,0,0,0,11.147.439,6.519,6.519,0,0,0,11.147-.439l.1-.174Zm-3.829-7.144a5.844,5.844,0,0,1-.529,4.187l0,0a5.83,5.83,0,0,1-.41.644l-.039.054-.012.016q-.119.158-.249.307c-.024.028-.05.055-.075.083-.068.075-.137.149-.209.221s-.152.147-.23.217l-.031.028q-.113.1-.23.192l-.041.033q-.117.091-.238.176l-.038.026q-.126.087-.255.167l-.016.01q-.131.08-.265.152l-.022.012c-.089.047-.18.092-.271.135l-.041.019q-.134.062-.271.116l-.043.017q-.14.054-.282.1l-.029.009c-.1.032-.2.062-.3.089h0c-.1.027-.2.05-.3.071l-.04.009c-.1.02-.193.037-.29.051l-.05.007q-.145.021-.292.034l-.044,0c-.1.009-.2.015-.3.018h-.015c-.1,0-.2,0-.3,0h-.038c-.1,0-.2-.009-.295-.017l-.055,0q-.145-.013-.29-.034l-.022,0,.021-.016c.074-.054.147-.111.219-.168l.044-.036q.114-.093.224-.191l.046-.042q.107-.1.209-.2l.013-.012c.071-.071.14-.144.207-.218l.044-.048c.066-.074.13-.148.193-.225l.028-.035c.057-.071.113-.143.167-.217l.03-.041q.087-.12.169-.244l.034-.054c.055-.085.109-.172.16-.26a6.5,6.5,0,0,0,.879-3.269c0-.112,0-.224-.009-.336,0-.021,0-.041,0-.062q-.01-.161-.027-.321c0-.021,0-.041-.007-.062-.013-.11-.028-.22-.047-.33v0c-.019-.108-.041-.216-.065-.323,0-.012,0-.025-.008-.037A5.851,5.851,0,0,1,499.137,276.178Zm-7.318-3.1a5.8,5.8,0,0,1,2.041,7.887q-.094.162-.2.317c-.023.035-.049.068-.073.1-.047.067-.094.135-.144.2-.03.039-.063.076-.094.115-.047.058-.093.117-.142.173-.035.04-.072.077-.107.116s-.1.105-.146.156-.079.075-.118.112-.1.1-.152.143-.085.071-.128.107-.1.088-.158.13-.091.067-.137.1-.108.08-.164.118-.1.062-.145.093-.089.057-.135.084c-.045-.027-.09-.056-.135-.084s-.1-.061-.145-.093-.11-.078-.165-.118-.092-.066-.136-.1-.107-.087-.16-.131-.085-.069-.127-.106-.1-.1-.155-.145-.078-.072-.115-.11-.1-.107-.15-.16c-.034-.037-.07-.073-.1-.111-.051-.058-.1-.119-.148-.18-.029-.036-.06-.071-.088-.108-.052-.068-.1-.139-.15-.209-.022-.031-.045-.062-.067-.093q-.1-.155-.2-.317a5.782,5.782,0,0,1-.782-2.908q0-.1,0-.2c0-.073.007-.146.012-.219a5.822,5.822,0,0,1,.2-1.149h0A5.838,5.838,0,0,1,491.819,273.078Zm-7.318,3.1a5.85,5.85,0,0,1,3.944.4c0,.012,0,.025-.008.037-.024.107-.046.214-.065.323v0c-.019.109-.034.219-.047.33,0,.021-.005.041-.007.062q-.018.16-.027.321c0,.02,0,.041,0,.062-.006.112-.009.223-.009.335a6.5,6.5,0,0,0,.879,3.268c.051.088.1.174.16.26l.035.054q.082.124.169.244l.03.041q.081.111.168.218l.028.035q.094.115.193.225l.044.048c.068.074.137.147.208.218l.013.012c.068.068.138.134.21.2l.046.042q.11.1.224.191l.044.036q.108.086.219.168l.021.016-.021,0c-.1.014-.2.025-.293.034l-.051,0q-.149.012-.3.017h-.034c-.1,0-.205,0-.308,0h-.008c-.1,0-.206-.01-.309-.018l-.039,0c-.1-.009-.2-.021-.3-.035l-.045-.007q-.148-.022-.295-.052l-.034-.007a5.859,5.859,0,0,1-.61-.163l-.023-.007c-.1-.032-.192-.067-.287-.1l-.038-.015q-.139-.055-.276-.118l-.036-.017c-.093-.043-.185-.089-.275-.137l-.017-.009q-.138-.074-.272-.156l-.012-.007c-.087-.054-.173-.11-.258-.168l-.036-.025q-.122-.085-.24-.177l-.04-.032q-.117-.093-.231-.193l-.03-.027c-.079-.071-.156-.143-.231-.218q-.074-.074-.145-.149a5.809,5.809,0,0,1-.849-1.176h0A5.844,5.844,0,0,1,484.5,276.178Zm1.878,10.141A5.8,5.8,0,0,1,481.4,283.5a5.848,5.848,0,0,1,3.147-2.528l.02.031c.059.1.121.192.185.286l.012.017c.066.1.136.189.207.281l.041.053q.106.133.218.261l.042.047c.079.088.16.174.244.258s.171.165.259.244l.087.075c.061.052.122.1.184.154l.105.082q.088.068.178.133l.112.078c.061.042.123.082.185.122l.111.07c.068.041.137.081.207.12l.1.054c.1.054.2.1.3.153l.007,0c.106.05.213.1.321.14l.094.036c.077.03.154.059.232.086l.118.039q.107.035.216.066l.125.034q.109.029.218.054l.123.027c.078.016.157.03.236.044l.107.019q.16.024.322.041l.023,0c.116.012.233.019.35.025l.1,0c.065,0,.13,0,.2,0h.128c.11,0,.219-.007.329-.014l.043,0c.109-.008.217-.019.326-.033l.018,0A5.808,5.808,0,0,1,486.379,286.319Zm10.88,0a5.808,5.808,0,0,1-4.6-2.264h0c.113.015.226.026.338.034l.049,0c.108.008.216.012.324.014h.128c.062,0,.123,0,.185,0l.112,0q.173-.008.344-.024l.059-.007c.1-.01.19-.022.285-.037l.126-.022c.072-.012.144-.025.215-.04l.139-.031q.1-.023.2-.049l.141-.039q.1-.029.2-.061l.135-.044c.07-.024.14-.051.209-.077.039-.015.078-.029.116-.044.105-.043.21-.088.313-.136l.047-.023c.089-.043.177-.087.264-.133l.11-.061c.065-.037.13-.074.194-.112l.118-.074c.06-.038.12-.077.178-.117l.116-.082c.059-.042.117-.085.174-.129l.108-.084c.062-.049.122-.1.182-.153.029-.025.059-.05.088-.076.088-.079.175-.16.259-.244s.164-.17.243-.258l.043-.047q.112-.128.218-.261l.041-.053c.072-.092.141-.186.208-.282l.011-.016c.065-.094.127-.19.187-.288l.019-.03a5.846,5.846,0,0,1,3.147,2.528A5.8,5.8,0,0,1,497.259,286.319Z" transform="translate(-462.683 -257.602)" fill="url(#radial-gradient)"/>
  </g>
</svg>
