<svg id="Layer_1" data-name="Layer 1" xmlns="http://www.w3.org/2000/svg" xmlns:xlink="http://www.w3.org/1999/xlink" viewBox="0 0 1080 1598"><defs><style>.cls-1{fill:none;}.cls-2{clip-path:url(#clip-path);}.cls-3{fill:url(#radial-gradient);}.cls-4{clip-path:url(#clip-path-2);}.cls-5{fill:url(#radial-gradient-2);}.cls-6{clip-path:url(#clip-path-3);}.cls-7{fill:url(#radial-gradient-3);}.cls-8{clip-path:url(#clip-path-4);}.cls-9{fill:url(#radial-gradient-4);}.cls-10{clip-path:url(#clip-path-5);}.cls-11{fill:url(#radial-gradient-5);}.cls-12{clip-path:url(#clip-path-6);}.cls-13{fill:url(#radial-gradient-6);}.cls-14{clip-path:url(#clip-path-7);}.cls-15{fill:url(#radial-gradient-7);}.cls-16{clip-path:url(#clip-path-8);}.cls-17{fill:url(#radial-gradient-8);}.cls-18{clip-path:url(#clip-path-9);}.cls-19{fill:url(#radial-gradient-9);}.cls-20{clip-path:url(#clip-path-10);}.cls-21{fill:url(#radial-gradient-10);}.cls-22{clip-path:url(#clip-path-11);}.cls-23{fill:url(#radial-gradient-11);}.cls-24{clip-path:url(#clip-path-12);}</style><clipPath id="clip-path" transform="translate(0 0.09)"><path class="cls-1" d="M334.28,558.7l134.24-33.46a50.62,50.62,0,0,1-15.08-16Z"/></clipPath><radialGradient id="radial-gradient" cx="-0.03" cy="1596.25" r="1.3" gradientTransform="matrix(0, 101.32, 101.32, 0, -161280.52, 671.88)" gradientUnits="userSpaceOnUse"><stop offset="0" stop-color="#34c2da"/><stop offset="0.25" stop-color="#2cb7d6"/><stop offset="0.68" stop-color="#169bcd"/><stop offset="1" stop-color="#0381c4"/></radialGradient><clipPath id="clip-path-2" transform="translate(0 0.09)"><path class="cls-1" d="M599.91,525.24,734.14,558.7,615,509.25a50.7,50.7,0,0,1-15.07,16"/></clipPath><radialGradient id="radial-gradient-2" cx="-0.03" cy="1596.25" r="1.3" gradientTransform="matrix(0, 101.32, 101.32, 0, -161018.74, 406.3)" gradientUnits="userSpaceOnUse"><stop offset="0" stop-color="#34c2da"/><stop offset="1" stop-color="#0381c4"/></radialGradient><clipPath id="clip-path-3" transform="translate(0 0.09)"><path class="cls-1" d="M398.75,523.44,451.43,502l1.21-2.17a50.46,50.46,0,0,1,10.52-13.21Z"/></clipPath><radialGradient id="radial-gradient-3" cx="-0.03" cy="1596.25" r="1.3" gradientTransform="matrix(0, 101.32, 101.32, 0, -161280.32, 614.05)" xlink:href="#radial-gradient-2"/><clipPath id="clip-path-4" transform="translate(0 0.09)"><path class="cls-1" d="M615.78,499.84,617,502l52.68,21.43-64.41-36.81a50.25,50.25,0,0,1,10.52,13.21"/></clipPath><radialGradient id="radial-gradient-4" cx="-0.03" cy="1596.25" r="1.3" gradientTransform="matrix(0, 101.32, 101.32, 0, -161076.81, 407.18)" xlink:href="#radial-gradient-2"/><clipPath id="clip-path-5" transform="translate(0 0.09)"><path class="cls-1" d="M404.79,512.24l68.27-38.91a51.2,51.2,0,0,1-1-11Z"/></clipPath><radialGradient id="radial-gradient-5" cx="-0.03" cy="1596.25" r="1.3" gradientTransform="matrix(0, 101.32, 101.32, 0, -161290.24, 588.17)" xlink:href="#radial-gradient-2"/><clipPath id="clip-path-6" transform="translate(0 0.09)"><path class="cls-1" d="M499.38,442a51,51,0,0,1,9.94,2.15,50.54,50.54,0,0,1,20.89-21.9l4-2.22,4,2.22a50.62,50.62,0,0,1,20.9,21.9,50.65,50.65,0,0,1,9.94-2.15l-34.84-25.86Z"/></clipPath><radialGradient id="radial-gradient-6" cx="-0.03" cy="1596.25" r="1.3" gradientTransform="matrix(0, 101.32, 101.32, 0, -161253.43, 436.9)" xlink:href="#radial-gradient-2"/><clipPath id="clip-path-7" transform="translate(0 0.09)"><path class="cls-1" d="M595.36,473.33l68.27,38.91-67.28-49.95a50.53,50.53,0,0,1-1,11"/></clipPath><radialGradient id="radial-gradient-7" cx="-0.03" cy="1596.25" r="1.3" gradientTransform="matrix(0, 101.32, 101.32, 0, -161102.44, 397.99)" xlink:href="#radial-gradient-2"/><clipPath id="clip-path-8" transform="translate(0 0.09)"><path class="cls-1" d="M408.94,498.14l64.39-46c.2-.95.45-1.88.71-2.81l1.26-4.39,4.39-1.26a49.46,49.46,0,0,1,7.67-1.57l46.85-33.49,46.86,33.49a49.34,49.34,0,0,1,7.66,1.57l4.39,1.26,1.27,4.39c.26.93.51,1.87.71,2.81h0l64.38,46L534.21,386.3Z"/></clipPath><radialGradient id="radial-gradient-8" cx="-0.03" cy="1596.25" r="1.3" gradientTransform="matrix(0, 101.32, 101.32, 0, -161241.38, 448.65)" xlink:href="#radial-gradient-2"/><clipPath id="clip-path-9" transform="translate(0 0.09)"><polygon class="cls-1" points="413.09 483.2 534.21 378.75 655.33 483.2 534.21 356.43 413.09 483.2"/></clipPath><radialGradient id="radial-gradient-9" cx="-0.03" cy="1596.25" r="1.3" gradientTransform="matrix(0, 101.32, 101.32, 0, -161263.78, 426.65)" xlink:href="#radial-gradient-2"/><clipPath id="clip-path-10" transform="translate(0 0.09)"><polygon class="cls-1" points="414.75 468.27 534.21 348.88 653.67 468.27 534.21 326.57 414.75 468.27"/></clipPath><radialGradient id="radial-gradient-10" cx="-0.03" cy="1596.25" r="1.3" gradientTransform="matrix(0, 101.32, 101.32, 0, -161286.18, 404.52)" xlink:href="#radial-gradient-2"/><clipPath id="clip-path-11" transform="translate(0 0.09)"><path class="cls-1" d="M462.72,504.25a40.09,40.09,0,0,1,21.6-17.34l.13.21c.41.66.83,1.32,1.27,2l.09.12c.45.66.93,1.3,1.42,1.93l.28.36c.48.61,1,1.21,1.5,1.79.09.11.19.22.29.32.54.61,1.09,1.2,1.67,1.77s1.17,1.14,1.77,1.68l.6.51c.42.36.84.72,1.27,1.06.23.19.48.38.72.56.4.31.81.62,1.22.91.25.19.51.37.77.54.42.29.84.57,1.27.84l.76.48,1.42.82.66.37c.69.37,1.38.72,2.08,1.05l.05,0c.73.34,1.46.66,2.21,1l.64.25,1.6.59.8.26,1.49.46.85.23,1.5.37.84.19q.81.17,1.62.3l.74.13c.73.11,1.47.2,2.21.28l.15,0c.8.08,1.6.13,2.4.17l.68,0c.45,0,.89,0,1.34,0h.88q1.13,0,2.25-.09l.3,0c.75-.06,1.49-.13,2.23-.23h.13a39.8,39.8,0,0,1-65.7-3.84m84.34,4.19.77,0c.79,0,1.57-.09,2.36-.17l.4-.05c.66-.07,1.31-.15,2-.25.29,0,.57-.1.86-.15.5-.08,1-.17,1.48-.27l1-.22c.46-.1.92-.21,1.37-.33l1-.27,1.35-.41.93-.3,1.43-.53.8-.31c.72-.29,1.44-.6,2.14-.93l.33-.16c.61-.3,1.21-.6,1.81-.92l.75-.42c.45-.25.89-.5,1.33-.77l.81-.51c.41-.26.82-.53,1.22-.81s.54-.36.8-.55.8-.59,1.2-.89l.74-.58c.42-.34.84-.69,1.25-1.05l.61-.52c.6-.54,1.19-1.1,1.77-1.67s1.13-1.17,1.67-1.77l.29-.33c.52-.58,1-1.18,1.5-1.79l.28-.36c.49-.63,1-1.27,1.43-1.93l.07-.11c.45-.65.87-1.31,1.28-2l.14-.2a40.1,40.1,0,0,1,21.59,17.34,39.8,39.8,0,0,1-65.7,3.84h0c.78.1,1.55.18,2.33.24l.34,0q1.11.08,2.22.09h.88c.43,0,.85,0,1.27,0m-2.2-4.92h-.26c-.67,0-1.35-.06-2-.12l-.38,0c-.66-.06-1.32-.14-2-.23l-.15,0,.14-.11c.51-.38,1-.76,1.51-1.16l.3-.24c.53-.43,1-.86,1.54-1.31l.32-.29c.48-.44,1-.9,1.43-1.36l.09-.09c.49-.48,1-1,1.42-1.49l.31-.33c.45-.51.89-1,1.32-1.55l.19-.24c.39-.49.78-1,1.15-1.49l.21-.28c.4-.55.78-1.11,1.15-1.67l.24-.37c.38-.59.75-1.18,1.1-1.78a44.71,44.71,0,0,0,6-22.44c0-.77,0-1.53-.06-2.3l0-.42c0-.74-.1-1.47-.18-2.2,0-.15,0-.29,0-.43-.09-.76-.2-1.51-.33-2.26v0c-.13-.75-.28-1.48-.45-2.22,0-.08,0-.17,0-.25A40.15,40.15,0,0,1,584.43,454a40.13,40.13,0,0,1-3.63,28.73v0a39.86,39.86,0,0,1-2.82,4.42l-.27.38-.08.1c-.55.72-1.11,1.43-1.71,2.11-.17.2-.34.38-.51.57-.47.52-.94,1-1.43,1.52s-1.05,1-1.58,1.49l-.22.19c-.51.46-1,.89-1.57,1.32l-.29.22c-.53.42-1.08.82-1.63,1.21l-.26.18c-.58.4-1.16.78-1.75,1.15l-.12.06c-.6.37-1.2.72-1.82,1.05l-.15.08c-.61.33-1.23.63-1.86.92l-.28.14c-.61.28-1.23.55-1.86.79l-.3.12c-.64.25-1.28.48-1.93.7l-.2.06c-.68.22-1.36.43-2,.61h0c-.68.18-1.37.34-2.06.49l-.27.05c-.66.14-1.33.25-2,.35l-.35.05c-.66.1-1.33.18-2,.24l-.3,0c-.69.06-1.39.11-2.09.13h-2.16m-23.39,0h-.06c-.71,0-1.42-.07-2.12-.13l-.27,0c-.68-.06-1.36-.14-2-.24l-.31,0c-.68-.11-1.35-.22-2-.36l-.23-.05a39.76,39.76,0,0,1-4.19-1.12l-.15-.05c-.67-.22-1.32-.45-2-.71l-.26-.1c-.64-.25-1.27-.52-1.9-.81l-.24-.12c-.64-.29-1.27-.61-1.89-.94l-.12-.06c-.63-.34-1.25-.7-1.86-1.07l-.09-.05c-.6-.37-1.18-.75-1.77-1.15l-.24-.17c-.56-.4-1.11-.8-1.65-1.22l-.27-.22q-.81-.64-1.59-1.32l-.2-.19c-.54-.48-1.07-1-1.59-1.49-.34-.34-.67-.68-1-1a39.68,39.68,0,0,1-5.83-8.07h0A40.07,40.07,0,0,1,484,454a40.06,40.06,0,0,1,27.06,2.77c0,.08,0,.17-.05.25-.17.74-.32,1.47-.45,2.22v0c-.13.75-.23,1.5-.32,2.26,0,.14,0,.28-.05.43-.09.73-.15,1.46-.19,2.2,0,.14,0,.28,0,.42,0,.77-.07,1.54-.07,2.3a44.62,44.62,0,0,0,6,22.43c.35.61.72,1.2,1.1,1.79l.24.36c.37.57.75,1.13,1.15,1.68l.21.28c.37.51.76,1,1.15,1.49l.19.24c.43.53.87,1,1.33,1.55l.3.33c.46.51.93,1,1.42,1.49l.09.09c.46.46,1,.92,1.44,1.36l.31.29c.5.45,1,.88,1.54,1.31l.31.24c.49.4,1,.78,1.5,1.15l.14.12-.14,0c-.67.09-1.34.17-2,.23l-.35,0c-.69.06-1.37.1-2.05.12h-.23l-1,0-1.07,0m11.82-3-1-.64c-.38-.26-.76-.53-1.13-.81s-.63-.45-.93-.69-.74-.59-1.1-.9-.58-.47-.87-.72l-1.06-1-.79-.75c-.35-.36-.69-.73-1-1.1s-.48-.51-.71-.77-.68-.81-1-1.23l-.61-.74c-.36-.47-.69-.95-1-1.44-.15-.21-.31-.42-.46-.64-.47-.71-.93-1.43-1.36-2.17a39.77,39.77,0,0,1-5.36-20c0-.45,0-.91,0-1.36s0-1,.08-1.5a39.85,39.85,0,0,1,1.36-7.89h0a40.11,40.11,0,0,1,17.9-23.41,39.75,39.75,0,0,1,19.37,34.16,39.61,39.61,0,0,1-5.37,20c-.43.74-.88,1.46-1.35,2.17-.16.24-.34.47-.5.7-.33.46-.65.93-1,1.38-.21.27-.43.52-.64.79s-.64.8-1,1.18-.49.53-.73.79-.66.73-1,1.07-.54.52-.81.78-.68.66-1,1l-.88.73c-.36.3-.71.6-1.08.89s-.63.46-.94.69-.75.55-1.13.81-.66.43-1,.64-.61.39-.92.58c-.31-.19-.62-.38-.92-.58M533,427.76A45.07,45.07,0,0,0,512.46,452a45.12,45.12,0,0,0-31.16-2.37L480,450l-.38,1.3A45.15,45.15,0,0,0,482,482.51a45.06,45.06,0,0,0-24.27,20.55l-.66,1.19.66,1.2a44.74,44.74,0,0,0,76.49,3,44.74,44.74,0,0,0,76.49-3l.66-1.2-.66-1.19a45.06,45.06,0,0,0-24.27-20.55,45.09,45.09,0,0,0,2.38-31.17l-.38-1.3-1.31-.38A45.12,45.12,0,0,0,556,452a45.07,45.07,0,0,0-20.56-24.27l-1.19-.66Z"/></clipPath><radialGradient id="radial-gradient-11" cx="-0.08" cy="1595.14" r="1.3" gradientTransform="matrix(63.6, 0, 0, -63.6, 541.96, 101971.81)" gradientUnits="userSpaceOnUse"><stop offset="0" stop-color="#ffd67d"/><stop offset="0.38" stop-color="#ec7b64"/><stop offset="1" stop-color="#f756a4"/></radialGradient><clipPath id="clip-path-12" transform="translate(0 0.09)"><rect class="cls-1" x="-166.88" y="73.63" width="1402.19" height="2074.72"/></clipPath></defs><g class="cls-2"><rect class="cls-3" x="375.71" y="466.5" width="51.38" height="134.94" transform="translate(-138.34 927.69) rotate(-89.17)"/></g><g class="cls-4"><rect class="cls-5" x="641.33" y="466.51" width="51.38" height="134.94" transform="translate(123.44 1193.28) rotate(-89.17)"/></g><g class="cls-6"><rect class="cls-7" x="412.09" y="472.57" width="37.74" height="64.94" transform="translate(-80.27 928.72) rotate(-89.17)"/></g><g class="cls-8"><rect class="cls-9" x="618.59" y="472.57" width="37.74" height="64.94" transform="translate(123.24 1135.21) rotate(-89.17)"/></g><g class="cls-10"><rect class="cls-11" x="413.46" y="452.77" width="50.93" height="68.98" transform="translate(-54.64 919.18) rotate(-89.17)"/></g><g class="cls-12"><rect class="cls-13" x="519.7" y="395.13" width="29.01" height="70.07" transform="translate(96.35 958.18) rotate(-89.17)"/></g><g class="cls-14"><rect class="cls-15" x="604.03" y="452.77" width="50.93" height="68.98" transform="translate(133.16 1109.72) rotate(-89.17)"/></g><g class="cls-16"><rect class="cls-17" x="476.48" y="316.15" width="115.46" height="252.13" transform="translate(84.3 970.06) rotate(-89.17)"/></g><g class="cls-18"><rect class="cls-19" x="469.08" y="297.79" width="130.27" height="244.05" transform="translate(106.7 947.98) rotate(-89.17)"/></g><g class="cls-20"><rect class="cls-21" x="461.64" y="276.94" width="145.15" height="240.95" transform="translate(129.09 925.91) rotate(-89.17)"/></g><g class="cls-22"><rect class="cls-23" x="457.06" y="427.19" width="154.3" height="101.45"/></g><g class="cls-24"><path d="M382.57,644.83H338.5a16,16,0,0,0,5.13,11.09,16.2,16.2,0,0,0,11.3,4.19q9.63,0,13.61-8.06h12.87a25.94,25.94,0,0,1-9.47,13q-6.85,5.07-17,5.08a29.39,29.39,0,0,1-14.8-3.72A26.37,26.37,0,0,1,329.87,656a31.87,31.87,0,0,1-3.72-15.64,32.66,32.66,0,0,1,3.62-15.65,25.33,25.33,0,0,1,10.15-10.41,30.2,30.2,0,0,1,15-3.66,29.36,29.36,0,0,1,14.55,3.55,25.17,25.17,0,0,1,9.94,10A30,30,0,0,1,383,639a38.57,38.57,0,0,1-.41,5.86m-12-9.63a13.57,13.57,0,0,0-4.71-10.57,16.84,16.84,0,0,0-11.41-4,15.3,15.3,0,0,0-10.57,3.93,16.38,16.38,0,0,0-5.23,10.62Z" transform="translate(0 0.09)"/><polygon points="412.29 640.53 438.87 669.31 422.75 669.31 401.4 644.5 401.4 669.31 389.47 669.31 389.47 591.86 401.4 591.86 401.4 636.86 422.33 611.64 438.87 611.64 412.29 640.53"/><path d="M441.85,624.73a26.33,26.33,0,0,1,23.6-14.13,25.17,25.17,0,0,1,11.88,2.67,24.14,24.14,0,0,1,8.11,6.65v-8.37h12v57.66h-12v-8.58a23.62,23.62,0,0,1-8.27,6.8,26.78,26.78,0,0,1-25.53-1.09,27.13,27.13,0,0,1-9.79-10.68,32.8,32.8,0,0,1-3.61-15.54,31.92,31.92,0,0,1,3.61-15.39M483,630a17.19,17.19,0,0,0-6.44-6.7A16.78,16.78,0,0,0,468,621a16.94,16.94,0,0,0-15,8.84,20.59,20.59,0,0,0-2.46,10.31,21.47,21.47,0,0,0,2.46,10.46,17.42,17.42,0,0,0,6.49,6.86,16.9,16.9,0,0,0,17.11,0,17.06,17.06,0,0,0,6.44-6.75,21.17,21.17,0,0,0,2.46-10.41A20.86,20.86,0,0,0,483,630" transform="translate(0 0.09)"/><path d="M516.68,667.7a21.47,21.47,0,0,1-8.53-6.7,16.73,16.73,0,0,1-3.35-9.47h12.35a8.42,8.42,0,0,0,3.51,6.12,12.71,12.71,0,0,0,8,2.46q5,0,7.8-1.94a5.83,5.83,0,0,0,2.77-5,5.1,5.1,0,0,0-3.08-4.81,58.15,58.15,0,0,0-9.79-3.46,92.19,92.19,0,0,1-10.57-3.45,18.53,18.53,0,0,1-7.06-5.13,13.43,13.43,0,0,1-3-9.1,14.25,14.25,0,0,1,2.72-8.43,18.2,18.2,0,0,1,7.8-6,29.23,29.23,0,0,1,11.67-2.2q9.84,0,15.86,5t6.43,13.55H538.29a8.5,8.5,0,0,0-3.14-6.18,11.76,11.76,0,0,0-7.64-2.3c-3.14,0-5.55.6-7.22,1.78a5.53,5.53,0,0,0-2.51,4.71,5.09,5.09,0,0,0,1.67,3.87,11.85,11.85,0,0,0,4.09,2.46q2.4.9,7.11,2.25a78.19,78.19,0,0,1,10.31,3.4,19.16,19.16,0,0,1,7,5.08,13.45,13.45,0,0,1,3,8.9,14.87,14.87,0,0,1-2.72,8.79,18,18,0,0,1-7.69,6.07,28.73,28.73,0,0,1-11.67,2.19,29.2,29.2,0,0,1-12.19-2.45" transform="translate(0 0.09)"/><path d="M600.2,613.43a20.15,20.15,0,0,1,8.16,8.37,28,28,0,0,1,3,13.4v34H599.52V637q0-7.74-3.88-11.88T585.07,621q-6.69,0-10.62,4.13T570.53,637v32.23H558.6V591.77h11.93v26.47a20,20,0,0,1,7.69-5.65,25.77,25.77,0,0,1,10.2-2,24.25,24.25,0,0,1,11.78,2.82" transform="translate(0 0.09)"/><path d="M620.92,624.73a26.33,26.33,0,0,1,23.6-14.13,25.2,25.2,0,0,1,11.88,2.67,24.24,24.24,0,0,1,8.11,6.65v-8.37h12v57.66h-12v-8.58a23.71,23.71,0,0,1-8.27,6.8,26.8,26.8,0,0,1-25.54-1.09,27.11,27.11,0,0,1-9.78-10.68,32.8,32.8,0,0,1-3.61-15.54,31.92,31.92,0,0,1,3.61-15.39M662.05,630a17.26,17.26,0,0,0-6.44-6.7A16.78,16.78,0,0,0,647,621a16.94,16.94,0,0,0-15,8.84,20.59,20.59,0,0,0-2.46,10.31A21.47,21.47,0,0,0,632,650.58a17.35,17.35,0,0,0,6.49,6.86,16.9,16.9,0,0,0,17.11,0,17.13,17.13,0,0,0,6.44-6.75,21.17,21.17,0,0,0,2.46-10.41A20.86,20.86,0,0,0,662.05,630" transform="translate(0 0.09)"/><path d="M686.64,624.73a26.33,26.33,0,0,1,23.6-14.13,25.14,25.14,0,0,1,11.88,2.67,24.14,24.14,0,0,1,8.11,6.65v-8.37h12v57.66h-12v-8.58a23.62,23.62,0,0,1-8.27,6.8,26.78,26.78,0,0,1-25.53-1.09,27.13,27.13,0,0,1-9.79-10.68A32.8,32.8,0,0,1,683,640.12a31.92,31.92,0,0,1,3.61-15.39M727.77,630a17.24,17.24,0,0,0-6.43-6.7,16.84,16.84,0,0,0-8.59-2.3,17.13,17.13,0,0,0-8.58,2.25,16.92,16.92,0,0,0-6.43,6.59,20.59,20.59,0,0,0-2.46,10.31,21.47,21.47,0,0,0,2.46,10.46,17.32,17.32,0,0,0,6.48,6.86,16.65,16.65,0,0,0,8.53,2.35,16.84,16.84,0,0,0,8.59-2.3,17.11,17.11,0,0,0,6.43-6.75,21.17,21.17,0,0,0,2.46-10.41A20.86,20.86,0,0,0,727.77,630" transform="translate(0 0.09)"/><path d="M334.28,707.51,330.36,701H327v6.51h-1V692.23h4.2a5.38,5.38,0,0,1,3.82,1.2,4.12,4.12,0,0,1,1.27,3.17,4.28,4.28,0,0,1-1,2.91,4.44,4.44,0,0,1-2.88,1.4l4,6.6ZM327,700.17h3.26a4.2,4.2,0,0,0,3-1,3.47,3.47,0,0,0,1-2.6q0-3.5-4.07-3.5H327Z" transform="translate(0 0.09)"/><polygon points="356.64 693.15 356.64 699.53 362.74 699.53 362.74 700.36 356.64 700.36 356.64 706.78 363.39 706.78 363.39 707.61 355.66 707.61 355.66 692.32 363.39 692.32 363.39 693.15 356.64 693.15"/><path d="M392.44,703.59h-7.26l-1.45,3.92h-1.07l5.62-14.93h1.09L395,707.51h-1.07Zm-.31-.83-3.31-8.9-3.33,8.9Z" transform="translate(0 0.09)"/><polygon points="415.82 706.78 421.5 706.78 421.5 707.61 414.84 707.61 414.84 692.32 415.82 692.32 415.82 706.78"/><polygon points="449.59 692.32 449.59 693.15 445.23 693.15 445.23 707.61 444.25 707.61 444.25 693.15 439.9 693.15 439.9 692.32 449.59 692.32"/><polygon points="478.76 692.32 473.95 701.42 473.95 707.61 472.97 707.61 472.97 701.42 468.12 692.32 469.23 692.32 473.45 700.51 477.65 692.32 478.76 692.32"/><path d="M530.76,703.59h-7.25l-1.46,3.92H521l5.62-14.93h1.09l5.59,14.93h-1.06Zm-.31-.83-3.3-8.9-3.34,8.9Z" transform="translate(0 0.09)"/><path d="M563.43,694.25a8.6,8.6,0,0,1,0,11.26,8.34,8.34,0,0,1-6,2h-4.29V692.23h4.29a8.26,8.26,0,0,1,6,2m-.71,10.64a6.71,6.71,0,0,0,1.81-5,6.79,6.79,0,0,0-1.81-5,7.15,7.15,0,0,0-5.27-1.81h-3.31v13.63h3.31a7.14,7.14,0,0,0,5.27-1.79" transform="translate(0 0.09)"/><polygon points="597.45 692.32 591.62 707.61 590.53 707.61 584.71 692.32 585.78 692.32 591.07 706.45 596.4 692.32 597.45 692.32"/><rect x="617.24" y="692.32" width="0.98" height="15.29"/><path d="M641.06,707.14a4.28,4.28,0,0,1-1.73-1.41,4.06,4.06,0,0,1-.71-2h1a3.7,3.7,0,0,0,1.12,2.14,4,4,0,0,0,2.88.94,4.33,4.33,0,0,0,2-.42,3.2,3.2,0,0,0,1.3-1.13,3,3,0,0,0,.46-1.59,2.66,2.66,0,0,0-.54-1.76,3.17,3.17,0,0,0-1.33-1,19.27,19.27,0,0,0-2.14-.7,17,17,0,0,1-2.38-.78,3.91,3.91,0,0,1-1.53-1.21,4,4,0,0,1,0-4.23,4,4,0,0,1,1.64-1.42,5.5,5.5,0,0,1,2.46-.53,5,5,0,0,1,3.27,1,3.88,3.88,0,0,1,1.48,2.46h-1a3.2,3.2,0,0,0-.57-1.2,3.35,3.35,0,0,0-1.27-1,4.32,4.32,0,0,0-2-.41,3.94,3.94,0,0,0-2.56.84,3,3,0,0,0-.51,4,3.48,3.48,0,0,0,1.34,1,16.21,16.21,0,0,0,2.15.69,18.25,18.25,0,0,1,2.38.79,3.7,3.7,0,0,1,1.51,1.2,3.58,3.58,0,0,1,.62,2.21,3.78,3.78,0,0,1-.55,1.94,4.13,4.13,0,0,1-1.6,1.49,5.32,5.32,0,0,1-2.56.57,6,6,0,0,1-2.59-.52" transform="translate(0 0.09)"/><path d="M671.72,706.7a7,7,0,0,1-2.66-2.78,9,9,0,0,1,0-8.07,7,7,0,0,1,2.66-2.76,7.83,7.83,0,0,1,7.62,0,7,7,0,0,1,2.66,2.76,9,9,0,0,1,0,8.07,7,7,0,0,1-2.66,2.78,7.83,7.83,0,0,1-7.62,0m7.08-.73a6.08,6.08,0,0,0,2.29-2.42,8.44,8.44,0,0,0,0-7.34,6.08,6.08,0,0,0-2.29-2.42,6.78,6.78,0,0,0-6.54,0,6.1,6.1,0,0,0-2.3,2.42,8.35,8.35,0,0,0,0,7.34,6.1,6.1,0,0,0,2.3,2.42,6.71,6.71,0,0,0,6.54,0" transform="translate(0 0.09)"/><path d="M711.59,707.51,707.67,701h-3.36v6.51h-1V692.23h4.21a5.4,5.4,0,0,1,3.82,1.2,4.12,4.12,0,0,1,1.27,3.17,4.28,4.28,0,0,1-1,2.91,4.44,4.44,0,0,1-2.89,1.4l4,6.6Zm-7.28-7.34h3.27a4.2,4.2,0,0,0,3-1,3.51,3.51,0,0,0,1-2.6q0-3.5-4.07-3.5h-3.23Z" transform="translate(0 0.09)"/><polygon points="742.39 692.32 737.58 701.42 737.58 707.61 736.6 707.61 736.6 701.42 731.75 692.32 732.86 692.32 737.08 700.51 741.28 692.32 742.39 692.32"/></g><rect class="cls-1" width="1080" height="1598"/></svg>