<?xml version="1.0" encoding="utf-8"?>
<!-- Generator: Adobe Illustrator 26.0.1, SVG Export Plug-In . SVG Version: 6.00 Build 0)  -->
<svg version="1.1" id="Layer_1" xmlns="http://www.w3.org/2000/svg" xmlns:xlink="http://www.w3.org/1999/xlink" x="0px" y="0px"
	 viewBox="0 0 300 300" style="enable-background:new 0 0 300 300;" xml:space="preserve">
<g>
	<g>
		<path d="M249.1,201.1c-1.3,3.8-4.2,5.9-7.6,7.6c-4.7,2.3-9.8,3.5-15,4.4c-6.3,1.1-12.7,1.4-19.1,1.5c-0.6,0-1.3,0-1.9-0.1
			c-1.4-0.3-2.4-1.5-2.5-2.8c0-1.4,1-2.8,2.5-3.1c0.7-0.1,1.4-0.1,2.1-0.1c8.4-0.1,16.8-0.7,24.9-3c2.6-0.7,5.1-1.9,7.6-2.9
			c2.1-0.9,3.3-2.4,2.8-4.9c-0.1-0.5-0.1-1.1-0.1-1.8c-4.3,2.2-8.7,3.5-13.3,4.4c-7.2,1.5-14.4,1.9-21.7,2.1c-1.4,0-2.5-0.4-3.2-1.7
			c-0.6-1.1-0.5-2.1,0.2-3.1c0.7-1.1,1.8-1.3,3-1.4c4.1-0.2,8.3-0.3,12.4-0.7c5.5-0.5,10.9-1.5,16-3.4c1.6-0.6,3.1-1.3,4.5-2.1
			c1.6-0.8,2.6-2.1,2.2-4.1c-0.1-0.6,0-1.2,0-1.8c-0.3,0-0.5-0.1-0.6,0c-6.9,3.4-14.4,4.8-22,5.5c-4.6,0.4-9.3,0.5-13.9,0.7
			c-0.7,0-1.4,0-2.1-0.2c-1.3-0.4-2.1-1.6-2.1-2.9c0.1-1.4,1.1-2.6,2.4-2.9c0.8-0.1,1.5-0.1,2.3-0.1c8.7-0.1,17.3-0.7,25.7-3.1
			c2.2-0.6,4.3-1.4,6.3-2.3c3.9-1.8,4.2-2.4,3.8-6.9c-0.5,0.2-0.9,0.4-1.4,0.6c-5.8,2.7-12.1,4-18.4,4.8c-7.6,1-15.2,1.2-22.8,0.8
			c-0.7,0-1.4-0.1-2.1-0.3c-1.4-0.5-2.1-1.9-1.9-3.2c0.2-1.4,1.3-2.5,2.7-2.6c1-0.1,1.9,0,2.9,0c6.9,0.3,13.8,0.1,20.7-0.8
			c5-0.7,9.9-1.6,14.6-3.5c0.7-0.3,1.4-0.6,2.1-0.9c4.4-2.4,3.8-2.6,3.6-6.7c-0.2,0-0.5,0-0.7,0.2c-6.1,3-12.7,4.3-19.3,5.2
			c-7.4,1-14.8,1.1-22.2,0.8c-8.1-0.4-16.2-1.4-23.9-4.2c-2.9-1-5.6-2.3-8-4.3c-2.2-1.9-3.3-4.2-3.2-7.1c0.1-7.4,0.1-14.8,0-22.2
			c0-3,1.1-5.3,3.4-7.2c3.2-2.7,7-4.1,10.9-5.2c10.5-2.9,21.2-3.6,32-3.2c3.9,0.1,7.8,0.6,11.8,0.9c0.4,0,0.8,0.1,1.1,0.2
			c1.8,0.4,2.9,1.8,2.7,3.4c-0.3,1.7-1.7,2.8-3.7,2.6c-2.2-0.2-4.4-0.5-6.5-0.7c-6.6-0.6-13.1-0.5-19.7,0c-6.1,0.5-12,1.4-17.8,3.3
			c-1.9,0.6-3.7,1.4-5.5,2.4c-3.2,1.8-3.2,3.2,0.1,5.1c3.1,1.8,6.5,2.8,9.9,3.6c10.5,2.4,21.2,2.8,31.9,2.1
			c6.3-0.4,12.5-1.3,18.4-3.2c2.1-0.7,4.2-1.7,6.2-2.7c0.9-0.5,1.6-1.4,2.7-2.3c-1.1-1-1.8-1.9-2.8-2.4c-2.2-1.1-4.5-2-6.7-2.9
			c-0.6-0.2-1.2-0.4-1.8-0.7c-1.3-0.7-1.8-2.1-1.5-3.5c0.4-1.3,1.6-2.2,3-2.2c0.4,0,0.8,0,1.1,0.2c2.8,1.1,5.7,2.1,8.4,3.4
			c2.8,1.4,4.9,3.6,5.9,6.6C249.1,150.8,249.1,175.9,249.1,201.1z M242.9,135.6c-11.4,5.3-23.5,6.4-35.7,6.4
			c-12.2,0-24.2-1.1-35.5-6.3c-0.3,4.3-0.7,4.5,3.7,6.9c0.5,0.2,0.9,0.5,1.4,0.6c2.9,0.9,5.9,2,8.9,2.6c9.8,2.2,19.8,2.4,29.8,1.8
			c6.5-0.4,13-1.3,19.2-3.4c2.2-0.8,4.4-1.9,6.4-3c0.7-0.4,1.4-1.4,1.6-2.2C243.2,137.9,242.9,136.8,242.9,135.6z M242.8,147.7
			c-11.4,5.3-23.5,6.3-35.6,6.3c-12.1,0-24.1-1.1-35.5-6.4c0,0.8,0.1,1.4,0,2c-0.3,1.9,0.6,3.1,2.1,3.9c1.3,0.7,2.6,1.4,4,1.9
			c5.6,2.2,11.4,3.2,17.3,3.8c10,1,20.1,0.9,30.1-0.7c4.8-0.8,9.6-1.8,14-4.1C243.7,152.1,243,151.8,242.8,147.7z"/>
		<path d="M50.9,166.7c0.4-2.2,0.7-4.4,1.1-6.6c4-20.2,12.9-37.9,27.5-52.6c3.2-3.2,6.7-6,10.6-8.4c0.3-0.2,0.7-0.4,1-0.6
			c2-1.4,2.3-3.1,1.1-5.2c-2.8-4.8-5.7-9.5-8.3-14.4c-2-3.6-3.6-7.4-4.3-11.5c-0.2-0.9-0.3-1.8-0.2-2.7c0.1-3.5,2.6-5.9,6.1-5.9
			c5.3-0.1,10.4,0.7,15.4,2.2c7.7,2.4,15.5,2.3,23.3,0.3c5.1-1.3,10.2-2.3,15.4-2.6c4.3-0.3,6.7,3.1,6.2,6.9
			c-0.5,3.5-1.6,6.8-3.2,9.9c-2.7,5.4-5.6,10.7-8.5,16c-2.3,4.1-2.2,4.9,1.7,7.5c11.4,7.7,20.3,17.6,26.7,29.8
			c0.2,0.5,0.5,0.9,0.7,1.4c0.5,1.5-0.1,3.1-1.5,3.8c-1.4,0.7-3,0.3-3.9-1c-0.3-0.4-0.5-0.9-0.8-1.3c-6.1-11.5-14.6-20.8-25.5-28
			c-2.2-1.5-4-3.3-4.7-5.9c-0.3-1.1-0.3-2.3-0.5-3.7c-0.6,0-1.2-0.1-1.9-0.1c-5.9,0-11.7,0-17.6,0c-0.7,0-1.4,0-2.1-0.2
			c-1.5-0.4-2.3-1.7-2.1-3.3c0.2-1.4,1.2-2.5,2.7-2.6c0.6-0.1,1.3,0,1.9,0c7.3,0,14.6,0,22.1,0c4.1-7.2,8.3-14.4,10.6-22.7
			c-3.1-0.1-5.8,0.4-8.6,1c-4.2,0.8-8.3,1.8-12.5,2.5c-6.4,1-12.7,0.4-18.9-1.4c-4-1.2-8-2-12.2-2.1c-0.6,0-1.3,0-2.3,0
			c0.2,1.2,0.3,2.3,0.7,3.2c1.8,4,3.5,8,5.5,11.9c1.5,2.9,3.3,5.7,5.1,8.4c1.6,2.5,2.9,5,2.3,8.4c0.9,0,1.5,0,2.2,0
			c5.9,0,11.7,0,17.6,0c0.6,0,1.3,0,1.9,0.1c1.6,0.2,2.6,1.3,2.7,2.8c0.1,1.6-0.8,2.9-2.4,3.2c-0.7,0.1-1.4,0.1-2.1,0.1
			c-7.4,0-14.7,0-22.1,0c-1.1,0-2.1,0.3-3.1,0.9c-11,7-18.9,16.8-25.1,28.1c-5.5,9.9-9.3,20.4-10.9,31.6c-2.1,15,1.6,28.1,12.7,38.7
			c7.1,6.8,15.8,10.7,25.4,12.9c6.4,1.5,12.9,2,19.4,1.9c0.4,0,0.8,0,1.2,0c1.8,0.1,3,1.3,3.1,2.9c0.1,1.5-1.1,2.9-2.8,3.2
			c-0.3,0.1-0.6,0.1-1,0.1c-13.1,0.3-25.7-1.8-37.4-8.1c-12.6-6.7-21.5-16.6-25.5-30.6c-0.7-2.5-1-5-1.5-7.6
			c-0.1-0.4-0.2-0.8-0.3-1.3C50.9,172.8,50.9,169.7,50.9,166.7z"/>
		<path d="M201.5,200.7c-0.1,20.2-15.1,37.5-35.2,40.2c-21.6,2.9-41.6-11.2-45.6-32.6c-2.5-13.5,1.1-25.5,10.5-35.6
			c0.4-0.4,0.8-0.9,1.3-1.2c1.3-0.8,2.9-0.6,3.9,0.4c1,1,1.1,2.5,0.4,3.7c-0.3,0.5-0.7,0.9-1.1,1.3c-8.9,9.8-11.7,21.3-7.8,33.9
			c3.9,12.7,12.8,20.6,25.8,23.6c18.5,4.2,37.4-8.4,40.9-26.9c3.7-19.4-8.6-37.3-28.1-40.8c-7.5-1.4-14.8-0.1-21.6,3.3
			c-0.5,0.2-0.9,0.5-1.4,0.7c-1.8,0.9-3.5,0.4-4.3-1.2c-0.9-1.6-0.3-3.3,1.4-4.3c3.3-1.9,6.8-3.3,10.6-4.2
			c22.8-5.3,44.9,8.9,49.4,31.8C201.1,195.6,201.2,198.2,201.5,200.7z"/>
	</g>
	<g>
		<path d="M160.6,196.9c-0.4,0-0.6,0-0.8,0c-3.1,0-6.3,0-9.4,0c-0.9,0-1.7-0.2-2.3-1c-0.9-1.1-0.7-3,0.8-3.8
			c0.5-0.2,0.9-0.3,1.4-0.3c3.2,0,6.4,0,9.5,0c0.2,0,0.5,0,0.8,0c-0.1-0.2-0.1-0.3-0.1-0.4c-0.8-1.4-1.8-2.4-3.3-2.9
			c-0.9-0.4-1.9-0.5-2.9-0.5c-1.5,0-3,0-4.5,0c-1,0-2.2-1.2-2.3-2.2c-0.2-1.8,1.3-2.9,2.6-2.9c6.5,0,12.9,0,19.4,0
			c1.1,0,1.9,0.4,2.4,1.4c0.6,1.4,0.1,2.7-1,3.3c-0.3,0.2-0.7,0.3-1,0.3c-1.5,0-3.1,0-4.6,0c-0.2,0-0.4,0-0.7,0
			c0.1,0.2,0.1,0.4,0.2,0.5c0.5,0.9,1,1.9,1.2,2.9c0.1,0.4,0.3,0.5,0.6,0.5c1,0,2.1,0,3.1,0c1.2,0,2.3,0.9,2.4,1.9
			c0.3,1.4-0.2,2.4-1.5,3c-0.3,0.2-0.8,0.2-1.2,0.2c-0.9,0-1.9,0-2.8,0c-0.5,0-0.6,0.1-0.8,0.6c-0.7,2.4-2,4.4-4,5.9
			c-1.2,0.9-2.4,1.6-3.8,2c-0.5,0.2-1.1,0.2-1.7,0.3c-0.2,0-0.4,0-0.8,0.1c0.1,0.2,0.2,0.4,0.3,0.6c1.1,1.4,2.2,2.7,3.4,4.1
			c2.1,2.5,4.2,5.1,6.3,7.6c0.3,0.4,0.6,0.9,0.9,1.4c0.4,0.9,0.1,1.7-0.5,2.4c-1,1.2-2.8,1.2-3.7,0c-1.3-1.5-2.6-3.1-3.9-4.6
			c-1.9-2.2-3.7-4.5-5.6-6.7c-1.6-1.9-3.1-3.8-4.6-5.6c-0.8-1-0.7-2.6,0.3-3.4c0.5-0.5,1.1-0.7,1.9-0.7c1.7,0,3.3,0,5,0
			c2.4-0.1,4.1-1.3,5.3-3.3C160.5,197.2,160.5,197.1,160.6,196.9z"/>
	</g>
</g>
</svg>
