<?xml version="1.0" encoding="utf-8"?>
<!-- Generator: Adobe Illustrator 26.0.1, SVG Export Plug-In . SVG Version: 6.00 Build 0)  -->
<svg version="1.1" id="Layer_1" xmlns="http://www.w3.org/2000/svg" xmlns:xlink="http://www.w3.org/1999/xlink" x="0px" y="0px"
	 viewBox="0 0 300 300" style="enable-background:new 0 0 300 300;" xml:space="preserve">
<g>
	<path d="M107.6,259.7c-0.4-2-1-4.1-1-6.1c-0.1-7.3,0-14.6-0.1-21.9c0-5.2-0.8-5.9-6-6c-4.5-0.1-9.1,0.1-13.6,0
		c-7.2-0.2-10.7-3.5-11.2-10.7c-0.1-1.6-0.1-3.2-0.1-4.9c0-51.4,0-102.9,0-154.3c0-2.4,0.1-4.9,0.4-7.3c0.8-4.9,3.9-7.8,8.8-8.2
		c1.1-0.1,2.3-0.1,3.4-0.1c34.2,0,68.5,0,102.7-0.1c3.5,0,6.1,0.9,8.6,3.5c7,7.3,14.1,14.4,21.3,21.4c2.4,2.3,3.5,4.7,3.5,8.1
		c-0.1,46.6,0,93.1-0.1,139.7c0,0.8,0,1.6-0.1,2.4c-0.7,6.9-4.1,10.2-11,10.4c-4.4,0.1-8.8,0-13.1,0c-17,0-34.1,0.1-51.1-0.1
		c-5.6-0.1-7.5,1.7-7.3,7.5c0.3,6.8,0.1,13.6,0,20.4c0,2.1-0.7,4.1-1,6.2c-1.3,0-2.6,0-3.9,0c-3.6-3.2-7.2-6.5-11-9.5
		c-0.7-0.6-2.6-0.5-3.3,0c-3.8,3-7.4,6.3-11,9.4C110.2,259.7,108.9,259.7,107.6,259.7z M81.5,132.6c0,26.3,0,52.6,0,78.9
		c0,1.3,0,2.6,0,3.9c0,2.7,1.4,4.3,4.1,4.4c3.2,0.1,6.5,0.1,9.7,0.1c1.7,0,1.9-0.9,1.2-2.2c-2.7-4.5-0.9-10.3-4.4-14.6
		c-0.3-0.4-0.4-1.3-0.2-1.9c1.5-5.7,2-12,5-16.8c2.6-4.4,7.3-7.7,11.2-11.5c2.2-2.1,5.4-1.3,8.3-1.5c2.7-0.2,5.2-2.5,8-3
		c1.7-0.3,3.8,0.7,5.5,1.6c1.7,0.9,3.2,1.5,5.4,1.4c4-0.3,7.4,1.5,9.3,5.1c1.1,2.1,2.6,3.4,4.7,4.6c3.5,2,5.3,5.3,5,9.3
		c-0.2,1.9,0.2,3.3,1.3,4.9c2.5,3.7,2.4,7.6,0,11.4c-0.7,1.2-1,2.6-1.3,3.9c-0.6,2.3-0.6,4.8-1.7,6.9c-1.1,2.2-0.5,2.5,1.5,2.5
		c4.7,0,9.4,0,14.1,0c14.8,0,29.5,0,44.3,0c6.4,0,7.1-0.7,7.1-6.9c0-0.6,0-1.3,0-1.9c0-43.8,0-87.6,0-131.4c0-1.1-0.1-2.3,0-3.4
		c0.2-2.3-0.9-3.2-3.1-3.1c-4.4,0.1-8.8,0.1-13.1,0c-7.5-0.1-10.9-3.5-11-11.1c-0.1-4.2-0.2-8.4,0-12.7c0.1-2.8-1-3.8-3.7-3.5
		c-0.6,0.1-1.3,0-1.9,0c-32.3,0-64.6,0-96.9,0c-1,0-1.9,0-2.9,0c-3.7,0.2-4.9,1.4-5.2,5c-0.1,1.3,0,2.6,0,3.9
		C81.5,80.7,81.5,106.7,81.5,132.6z M130.5,224.6c1.1,0.1,1.4,0.1,1.8,0.2c5.5,0.5,5.4,0.5,7.6-4.8c0.5-1.2,2.1-2.4,3.4-2.9
		c4.1-1.7,4.9-2.5,3.9-6.8c-0.5-2.2-0.1-3.6,1.5-5.1c2.8-2.8,2.9-4.8,0.2-7.5c-1.7-1.7-2.3-3.1-1.7-5.5c1-4,0.1-5.3-3.8-6.4
		c-2.4-0.7-3.4-1.9-4-4.3c-0.9-3.7-2.8-4.8-6.4-3.6c-2.4,0.7-3.8,0.4-5.4-1.6c-2.3-2.9-4.4-2.9-6.9-0.3c-1.7,1.8-3.1,2.1-5.5,1.5
		c-3.8-1.1-5.5,0-6.4,3.8c-0.6,2.4-1.7,3.5-4.1,4c-3.5,0.8-4.6,2.6-3.7,6.1c0.8,2.8,0.1,4.4-1.9,6.4c-2.3,2.2-2.3,4.6,0.2,6.8
		c2,1.8,2.4,3.4,1.7,5.9c-0.9,3.8,0,5.3,4,6.3c2.3,0.6,3.1,1.8,3.7,3.9c1.2,3.9,2.6,4.9,6.4,3.8c2.4-0.7,3.8-0.3,5.5,1.4
		c2.4,2.5,4.2,2.4,7.3,0.4C128.9,225.5,130,224.9,130.5,224.6z M136.3,240.6c-0.1,0-0.2,0-0.3,0c0-1.8,0-3.6,0-5.3
		c-0.1-5.4-1.2-5.9-6-3.6c-2.1,1-4.6,1.7-6.9,1.7c-1.8,0-3.5-1.4-5.3-2.2c-3.5-1.5-5.3-0.5-5.4,3.2c-0.1,4.7,0,9.4,0,14.1
		c0,1.5,0.6,2.2,2,1.1c2-1.6,4-3.3,6-4.9c3.5-2.8,4-2.8,7.5,0c2.4,1.9,4.9,3.6,7.3,5.4C135.6,246.8,135.9,243.7,136.3,240.6z
		 M207.3,67.6c1.8,0,3.5,0,5.3,0c0.6,0,1.2-0.2,1.8-0.3c-0.3-0.5-0.5-1.2-0.9-1.6c-3.4-3.4-6.8-6.9-10.3-10.2
		c-1.6-1.5-3.3-2.8-5-4.2c-0.2,2.2-0.6,4.4-0.6,6.5C197.6,67.3,197.9,67.6,207.3,67.6z"/>
	<path d="M150.5,131.3c-15.1,0-30.1,0-45.2,0c-1.6,0-3.3,0-4.8-0.5c-0.8-0.3-1.8-1.6-1.8-2.5c0-0.8,1-2,1.8-2.5
		c0.9-0.5,2.2-0.5,3.3-0.5c30.9,0,61.9,0,92.8,0c1,0,2.1-0.1,2.8,0.4c1,0.6,2.3,1.7,2.3,2.6c0,0.9-1.3,2.2-2.3,2.6
		c-1.3,0.5-2.9,0.3-4.3,0.3C180.3,131.3,165.4,131.3,150.5,131.3z"/>
	<path d="M150.5,164.4c-15.1,0-30.1,0-45.2,0c-1.5,0-3,0.2-4.3-0.3c-1-0.4-2.2-1.7-2.2-2.6c0-0.9,1.3-2.1,2.3-2.6
		c1.1-0.5,2.5-0.3,3.8-0.3c30.1,0,60.3,0,90.4,0c1.6,0,3.3,0,4.8,0.6c0.8,0.3,1.8,1.6,1.8,2.5c0,0.8-1,2.1-1.9,2.4
		c-1.5,0.5-3.2,0.5-4.8,0.5C180.3,164.4,165.4,164.4,150.5,164.4z"/>
	<path d="M150,120.3c-14.6,0-29.2,0-43.7,0c-1.6,0-3.3,0.1-4.8-0.4c-1-0.3-2.6-1.8-2.4-2.4c0.3-1.1,1.5-2.3,2.6-2.9
		c0.9-0.5,2.2-0.2,3.3-0.2c30.3,0,60.6,0,90.9,0c1.3,0,2.7-0.2,3.8,0.3c1,0.5,2.2,1.7,2.2,2.6c0,0.9-1.3,2.2-2.3,2.5
		c-1.5,0.5-3.2,0.4-4.8,0.4C179.8,120.3,164.9,120.3,150,120.3z"/>
	<path d="M150.5,147.6c14.4,0,28.9,0,43.3,0c1,0,1.9,0,2.9,0c2.2,0.1,5.2-0.3,5.1,2.9c0,3.1-3.1,2.8-5.3,2.9
		c-3.6,0.2-7.1,0.1-10.7,0.1c-26.5,0-52.9,0-79.4,0c-1.9,0-3.9-0.1-5.8-0.5c-0.8-0.2-2.1-1.6-2-2.2c0.2-1,1.1-2.4,2.1-2.8
		c1.3-0.5,2.9-0.3,4.3-0.3C120.3,147.6,135.4,147.6,150.5,147.6z"/>
	<path d="M150,142.2c-14.8,0-29.5,0-44.3,0c-1.5,0-3,0.2-4.3-0.2c-1-0.4-2.3-1.6-2.4-2.5c0-0.8,1.3-2,2.3-2.5
		c0.8-0.4,1.9-0.2,2.9-0.2c30.8,0,61.6,0,92.4,0c2.2,0,5.2-0.6,5.3,2.6c0,3.2-3,2.8-5.2,2.8C181.1,142.2,165.5,142.2,150,142.2z"/>
	<path d="M150.5,82.3c9.6,0,19.1,0,28.7,0c4.5,0,6.5,0.9,6.1,2.9c-0.7,3.6-3.9,2.9-6.3,2.9c-11.7,0.1-23.3,0.1-35,0.1
		c-7.6,0-15.2,0.1-22.8,0c-2.3,0-5.2,0.6-5.8-2.8c-0.4-2.1,1.5-3,6-3C131.1,82.2,140.8,82.3,150.5,82.3z"/>
	<path d="M150.6,93.8c9.2,0,18.5,0,27.7,0c1.1,0,2.3,0,3.4,0c1.8,0,3.4,0.5,3.5,2.5c0.1,2.3-1.7,2.9-3.6,2.9c-0.8,0-1.6,0-2.4,0
		c-19.1,0-38.3,0-57.4,0c-1.3,0-2.7,0.2-3.8-0.3c-1-0.4-2.3-1.7-2.3-2.6c0-0.8,1.3-2,2.4-2.4c1.1-0.4,2.6-0.2,3.8-0.2
		C131.4,93.8,141,93.8,150.6,93.8z"/>
	<path d="M174.2,175.3c-7,0-14,0-20.9,0c-1,0-1.9,0-2.9,0c-1.8,0-3.4-0.7-3.5-2.6c-0.1-2.3,1.7-2.9,3.7-2.9c9.2,0,18.5,0,27.7,0
		c5.8,0,11.7,0,17.5,0c1.1,0,2.4-0.3,3.4,0.2c1.1,0.6,1.9,1.7,2.9,2.7c-1,0.9-1.9,2-3,2.6c-0.9,0.4-2.2,0.1-3.4,0.1
		C188.5,175.3,181.3,175.3,174.2,175.3z"/>
	<path d="M146,200.9c0,11.8-9.5,21.5-21.2,21.7c-11.6,0.2-22.1-10-22.1-21.5c0-12,10.1-22,22.1-21.9
		C136.5,179.4,146,189.1,146,200.9z M124.6,216.7c8.8,0,15.8-7,15.8-15.7c0.1-8.9-7.1-16-16.1-16c-8.8,0-15.7,6.9-15.7,15.8
		C108.6,209.9,115.4,216.8,124.6,216.7z"/>
</g>
</svg>
