<svg xmlns="http://www.w3.org/2000/svg" width="80.827" height="74.358" viewBox="0 0 80.827 74.358">
  <g id="Group_353" data-name="Group 353" transform="translate(0)">
    <path id="Path_1109" data-name="Path 1109" d="M607.842-11.89a5.546,5.546,0,0,1,2.945-4.043c.58-.277,1.254-.348,1.863-.574.233-.086.562-.327.58-.523a5.4,5.4,0,0,1,9.248-3.266c.015.015.048.013.133.034V-48.114l-.188-.162c-.724.782-1.4,1.615-2.182,2.336a4.164,4.164,0,0,1-6.751-1.174,4,4,0,0,1,.41-4.25,7.367,7.367,0,0,1,.837-.942q15.091-15.1,30.188-30.2,3.332-3.333,6.653-.009c.689.688,1.4,1.353,2.055,2.074a1.669,1.669,0,0,0,1.383.554q13.852-.022,27.7-.015c1.823,0,3.342.564,4.154,2.287a5.214,5.214,0,0,1,.434,2.131q.053,7.735.013,15.47c-.012,2.771-1.675,4.378-4.459,4.387-1.39,0-2.779,0-4.32,0,.248.281.4.47.571.644,1.122,1.147,2.311,2.236,3.355,3.449a4.1,4.1,0,0,1-.3,5.647,4.155,4.155,0,0,1-5.6.193c-.721-.61-1.364-1.312-2.045-1.969-.179-.173-.369-.334-.64-.577v23.692c.727,0,1.453-.057,2.166.01a6.526,6.526,0,0,1,5.509,4.544,1.271,1.271,0,0,0,1.06,1.044,8.052,8.052,0,0,1,6.042,7.575,1.378,1.378,0,0,1-1.415,1.541c-.184.011-.368,0-.552,0q-38.439,0-76.879.012a1.928,1.928,0,0,1-1.98-.967Zm63.318-38.3h-45.74a1.21,1.21,0,0,0-.048.209q-.005,15.354-.021,30.707c0,.5.279.6.623.759a7.605,7.605,0,0,1,3.741,3.477c.406.781.673,1.633,1.007,2.462h8.1v-1q0-9.2,0-18.393c0-1.737.361-2.106,2.067-2.107q7.381,0,14.762,0c1.666,0,2.056.389,2.057,2.038q0,9.276,0,18.551v.922h5.525a6.84,6.84,0,0,1,5.117-5.205l.641-2.9c-.31.026-.621.072-.932.073q-3.632.009-7.263,0c-1.262,0-1.756-.5-1.761-1.786q-.015-3.592,0-7.183c0-1.338.465-1.8,1.8-1.805q3.552-.013,7.1,0c1.473,0,1.877.406,1.881,1.88.007,2.158,0,4.316,0,6.473,0,.273.026.547.043.879a2.618,2.618,0,0,0,1.326-2.425c-.062-8.209-.033-16.419-.033-24.629Zm-5.4-8.13q8.484,0,16.969,0c1.466,0,1.9-.421,1.9-1.861q.007-7.577,0-15.154c0-1.436-.437-1.863-1.9-1.863q-16.93,0-33.859,0c-1.532,0-1.953.429-1.954,1.983q0,7.459,0,14.917c0,1.561.416,1.978,1.955,1.979Q657.311-58.318,665.756-58.319Zm-24.181,27v18.755h13.384V-31.324Zm27.446-21.652.125-.179c-.648-.613-1.328-1.2-1.934-1.848a1.854,1.854,0,0,0-1.506-.638c-5.6.026-11.205.016-16.808.015-3.074,0-4.682-1.593-4.686-4.65,0-2.867,0-5.734,0-8.6,0-.262-.027-.524-.035-.669L627.6-52.977Zm-18.8-26.966c-1.495-1.98-2.263-1.808-3.665-.4q-14.865,14.935-29.787,29.813a5.109,5.109,0,0,0-.766.894,1.391,1.391,0,0,0,.232,1.8,1.417,1.417,0,0,0,1.874.151,5.989,5.989,0,0,0,.761-.683q11.974-11.966,23.962-23.919c.951-.944,1.656-1.85,1.386-3.256a2.432,2.432,0,0,1,.053-.7,3.9,3.9,0,0,1,3.511-3.571C648.561-79.908,649.352-79.9,650.223-79.943ZM685.7-12.55a5.114,5.114,0,0,0-4.4-3.939c-1.752-.2-1.884-.323-2.105-2.011a4.02,4.02,0,0,0-4.549-3.381,3.938,3.938,0,0,0-3.4,4.5c.258,1.569-.145,2.084-1.7,2.178a3.615,3.615,0,0,0-3.379,2.649Zm-57.9-.008a5.187,5.187,0,0,0-5.025-3.973,1.761,1.761,0,0,1-1.753-1.156,2.567,2.567,0,0,0-2.678-1.542,2.626,2.626,0,0,0-2.217,3.582c.253.73.4,1.475-.347,1.881a2.418,2.418,0,0,1-1.614.074,2.536,2.536,0,0,0-3.112,1.135Zm42.808-43.067-.112.212c.537.5,1.086.993,1.608,1.512,1.96,1.947,3.905,3.908,5.867,5.852a1.52,1.52,0,0,0,2.113.371,1.487,1.487,0,0,0,.073-2.44c-1.713-1.747-3.452-3.467-5.193-5.187a1,1,0,0,0-.594-.306C673.115-55.639,671.861-55.625,670.607-55.625ZM667.065-28.6h-5.277v5.274h5.277Z" transform="translate(-607.842 84.175)" fill="#2d3437"/>
    <path id="Path_1110" data-name="Path 1110" d="M782.451,118.407c2.13,0,4.261-.008,6.392,0a2.728,2.728,0,0,1,3.047,3.009q.022,2.367,0,4.734a2.757,2.757,0,0,1-3.049,3.022q-6.391.01-12.783,0a2.756,2.756,0,0,1-3.046-3.025q-.023-2.367,0-4.734a2.728,2.728,0,0,1,3.049-3.006C778.19,118.4,780.32,118.407,782.451,118.407Zm-6.708,8.013h5.3v-1.248h-5.3Zm8.153.019h5.241v-1.323h-4.207C783.681,125.116,783.665,125.135,783.9,126.438Zm-8.155-4.088h5.287v-1.18h-5.287Zm8.117-1.217v1.226h5.283v-1.226Z" transform="translate(-742.031 -80.419)" fill="#2d3437"/>
    <path id="Path_1111" data-name="Path 1111" d="M713.837,197.415c1.209,0,2.417-.011,3.626,0,1.226.015,1.7.5,1.707,1.738q.017,3.625,0,7.251c-.005,1.279-.5,1.779-1.758,1.784q-3.665.014-7.33,0c-1.182-.006-1.687-.494-1.7-1.677q-.029-3.7,0-7.409c.009-1.242.474-1.676,1.748-1.688C711.367,197.406,712.6,197.415,713.837,197.415Zm2.576,8.042v-5.275h-5.278v5.275Z" transform="translate(-689.521 -144.611)" fill="#2d3437"/>
    <path id="Path_1112" data-name="Path 1112" d="M839-25.847a4.093,4.093,0,0,1-.418,5.787,4.029,4.029,0,0,1-2.607.964c-1.262.018-2.524.023-3.785,0a1.408,1.408,0,0,1-1.6-1.607q-.027-5.126,0-10.251c.006-1.123.472-1.588,1.585-1.609q1.931-.038,3.864.01a3.814,3.814,0,0,1,3.537,2.234,3.9,3.9,0,0,1-.37,4.173Zm-5.667,1.39v2.615c.985,0,1.926.066,2.853-.021a1.2,1.2,0,0,0,1.093-1.387,1.217,1.217,0,0,0-1.226-1.2C835.169-24.488,834.281-24.457,833.333-24.457Zm-.006-2.791c1.027,0,1.969.063,2.9-.02a1.146,1.146,0,0,0,1.053-1.331,1.153,1.153,0,0,0-1.109-1.212c-.929-.06-1.865-.015-2.841-.015Z" transform="translate(-788.813 42.254)" fill="#2d3437"/>
    <path id="Path_1113" data-name="Path 1113" d="M888.162-32.249h2.64c0,2.919,0,5.784,0,8.649a2.11,2.11,0,0,0,3.311,1.895,1.549,1.549,0,0,0,.717-1.554q0-4.025,0-8.049v-.927H897.5c.013.3.036.578.036.859,0,2.5-.081,5,.021,7.5.15,3.656-2.01,5.442-5.719,5.027a3.979,3.979,0,0,1-3.714-4.067c-.03-2.946-.009-5.892-.008-8.838C888.113-31.912,888.143-32.065,888.162-32.249Z" transform="translate(-835.553 41.986)" fill="#2d3437"/>
    <path id="Path_1114" data-name="Path 1114" d="M953.17-22.09h-2.7c0-.356,0-.684,0-1.013-.015-1.786.314-3.668-.146-5.332-.452-1.636-1.7-3.051-2.606-4.563-.348-.585-.7-1.17-1.1-1.851l2.294-1.388,2.891,4.8,2.9-4.794,2.3,1.386c-1.176,1.961-2.339,3.86-3.452,5.787a2.868,2.868,0,0,0-.366,1.32C953.147-25.882,953.17-24.021,953.17-22.09Z" transform="translate(-883.099 45.226)" fill="#2d3437"/>
    <path id="Path_1115" data-name="Path 1115" d="M794.9,226.963v-2.644l1.231-.076v-2.617l-1.219-.077V218.91c.922,0,1.811-.046,2.693.014a1.255,1.255,0,0,1,1.262,1.35c.036,1.786.038,3.574,0,5.359a1.249,1.249,0,0,1-1.356,1.323C796.67,226.988,795.829,226.963,794.9,226.963Z" transform="translate(-759.827 -162.065)" fill="#2d3437"/>
  </g>
</svg>
